<svg width="927" height="396" viewBox="0 0 927 396" fill="none" xmlns="http://www.w3.org/2000/svg">
<path d="M456.797 1H1V394.825H456.797V1Z" stroke="black" stroke-width="1.99911" stroke-linecap="square" stroke-linejoin="round"/>
<path d="M177.875 15.9606H179.687L174.095 34.015H172.284L177.875 15.9606ZM191.119 22.2703C191.619 21.3749 192.212 20.7189 192.9 20.3024C193.587 19.886 194.399 19.6777 195.336 19.6777C196.585 19.6777 197.548 20.115 198.225 20.9896C198.902 21.8642 199.24 23.1137 199.24 24.738V31.9847H197.241V24.8004C197.241 23.6343 197.038 22.7753 196.632 22.2235C196.226 21.6716 195.607 21.3957 194.774 21.3957C193.753 21.3957 192.946 21.7341 192.353 22.4109C191.759 23.0877 191.463 24.0091 191.463 25.1753V31.9847H189.464V24.8004C189.464 23.6343 189.261 22.7753 188.854 22.2235C188.448 21.6716 187.818 21.3957 186.965 21.3957C185.965 21.3957 185.169 21.7341 184.575 22.4109C183.982 23.0877 183.685 24.0091 183.685 25.1753V31.9847H181.686V19.9589H183.685V21.833C184.122 21.0834 184.658 20.5367 185.294 20.1931C185.929 19.8495 186.673 19.6777 187.527 19.6777C188.402 19.6777 189.146 19.8964 189.76 20.3337C190.375 20.771 190.828 21.4165 191.119 22.2703ZM208.174 33.1092C207.612 34.5462 207.065 35.478 206.534 35.9048C206.003 36.3318 205.29 36.5453 204.394 36.5453H202.833V34.921H203.988C204.53 34.921 204.951 34.7907 205.253 34.5304C205.555 34.2701 205.883 33.661 206.237 32.7032L206.612 31.7974L201.739 19.9589H203.832L207.581 29.3609L211.36 19.9589H213.453L208.174 33.1092ZM225.291 35.6393V37.17H213.859V35.6393H225.291ZM234.1 21.8018C233.892 21.6768 233.657 21.5831 233.397 21.5207C233.137 21.4582 232.851 21.4269 232.538 21.4269C231.414 21.4269 230.555 21.7914 229.961 22.5202C229.368 23.249 229.071 24.2902 229.071 25.6438V31.9847H227.072V19.9589H229.071V21.833C229.467 21.1042 229.998 20.5627 230.664 20.2087C231.33 19.8547 232.142 19.6777 233.1 19.6777C233.246 19.6777 233.397 19.6829 233.553 19.6933C233.71 19.7037 233.892 19.7298 234.1 19.7714V21.8018ZM240.847 21.3332C239.785 21.3332 238.947 21.7497 238.332 22.5827C237.718 23.4156 237.411 24.5505 237.411 25.9874C237.411 27.4243 237.713 28.554 238.317 29.3765C238.921 30.1991 239.764 30.6103 240.847 30.6103C241.888 30.6103 242.716 30.1991 243.33 29.3765C243.945 28.554 244.252 27.4243 244.252 25.9874C244.252 24.5505 243.945 23.4156 243.33 22.5827C242.716 21.7497 241.888 21.3332 240.847 21.3332ZM240.847 19.6777C242.554 19.6777 243.898 20.2348 244.876 21.3489C245.855 22.4629 246.345 24.0091 246.345 25.9874C246.345 27.9449 245.855 29.4859 244.876 30.6103C243.898 31.7348 242.554 32.2972 240.847 32.2972C239.119 32.2972 237.765 31.7348 236.786 30.6103C235.807 29.4859 235.318 27.9449 235.318 25.9874C235.318 24.0091 235.807 22.4629 236.786 21.3489C237.765 20.2348 239.119 19.6777 240.847 19.6777ZM258.245 25.9874C258.245 24.5297 257.944 23.3896 257.34 22.5671C256.736 21.7445 255.913 21.3332 254.872 21.3332C253.831 21.3332 253.013 21.7445 252.42 22.5671C251.826 23.3896 251.53 24.5297 251.53 25.9874C251.53 27.4451 251.826 28.5852 252.42 29.4078C253.013 30.2303 253.831 30.6415 254.872 30.6415C255.913 30.6415 256.736 30.2303 257.34 29.4078C257.944 28.5852 258.245 27.4451 258.245 25.9874ZM251.53 21.7705C251.925 21.0625 252.441 20.5367 253.076 20.1931C253.711 19.8495 254.476 19.6777 255.372 19.6777C256.829 19.6777 258.011 20.2556 258.917 21.4113C259.823 22.567 260.276 24.0924 260.276 25.9874C260.276 27.8824 259.823 29.4078 258.917 30.5636C258.011 31.7193 256.829 32.2972 255.372 32.2972C254.476 32.2972 253.711 32.1253 253.076 31.7816C252.441 31.4382 251.925 30.9018 251.53 30.1731V31.9847H249.53V15.2734H251.53V21.7705ZM268.21 21.3332C267.148 21.3332 266.31 21.7497 265.695 22.5827C265.081 23.4156 264.774 24.5505 264.774 25.9874C264.774 27.4243 265.076 28.554 265.68 29.3765C266.283 30.1991 267.127 30.6103 268.21 30.6103C269.251 30.6103 270.079 30.1991 270.693 29.3765C271.307 28.554 271.614 27.4243 271.614 25.9874C271.614 24.5505 271.307 23.4156 270.693 22.5827C270.079 21.7497 269.251 21.3332 268.21 21.3332ZM268.21 19.6777C269.917 19.6777 271.26 20.2348 272.239 21.3489C273.218 22.4629 273.707 24.0091 273.707 25.9874C273.707 27.9449 273.218 29.4859 272.239 30.6103C271.26 31.7348 269.917 32.2972 268.21 32.2972C266.481 32.2972 265.128 31.7348 264.149 30.6103C263.17 29.4859 262.681 27.9449 262.681 25.9874C262.681 24.0091 263.17 22.4629 264.149 21.3489C265.128 20.2348 266.481 19.6777 268.21 19.6777ZM278.924 16.5541V19.9589H282.984V21.4894H278.924V28.0178C278.924 28.9965 279.059 29.6264 279.33 29.9075C279.601 30.1887 280.142 30.3293 280.954 30.3293H282.984V31.9847H280.954C279.434 31.9847 278.382 31.6985 277.799 31.1257C277.216 30.5532 276.925 29.5171 276.925 28.0178V21.4894H275.488V19.9589H276.925V16.5541H278.924Z" fill="black" stroke="black" stroke-width="1.99911" stroke-linecap="square" stroke-linejoin="round"/>
<path d="M440.804 62.9727H16.9932V212.906H440.804V62.9727Z" stroke="black" stroke-width="1.99911" stroke-linecap="square" stroke-linejoin="round"/>
<path d="M114.762 77.9338H116.573L110.982 95.9882H109.17L114.762 77.9338ZM128.006 84.2435C128.506 83.348 129.099 82.6921 129.786 82.2756C130.474 81.8591 131.286 81.6509 132.223 81.6509C133.472 81.6509 134.435 82.0882 135.112 82.9628C135.789 83.8374 136.127 85.0868 136.127 86.7111V93.9579H134.128V86.7736C134.128 85.6074 133.925 84.7484 133.519 84.1966C133.113 83.6448 132.493 83.3689 131.66 83.3689C130.64 83.3689 129.833 83.7072 129.24 84.384C128.646 85.0608 128.349 85.9823 128.349 87.1484V93.9579H126.35V86.7736C126.35 85.6074 126.147 84.7484 125.741 84.1966C125.335 83.6448 124.705 83.3689 123.851 83.3689C122.852 83.3689 122.055 83.7072 121.462 84.384C120.868 85.0608 120.572 85.9823 120.572 87.1484V93.9579H118.572V81.932H120.572V83.8062C121.009 83.0565 121.545 82.5099 122.18 82.1663C122.815 81.8227 123.56 81.6509 124.414 81.6509C125.288 81.6509 126.033 81.8695 126.647 82.3068C127.261 82.7441 127.714 83.3897 128.006 84.2435ZM145.061 95.0824C144.498 96.5193 143.952 97.4511 143.421 97.8779C142.89 98.3049 142.177 98.5185 141.281 98.5185H139.719V96.8942H140.875C141.416 96.8942 141.838 96.7638 142.14 96.5035C142.442 96.2433 142.77 95.6341 143.124 94.6764L143.499 93.7706L138.626 81.932H140.719L144.467 91.3341L148.247 81.932H150.34L145.061 95.0824ZM162.178 97.6125V99.1432H150.746V97.6125H162.178ZM170.987 83.7749C170.778 83.65 170.544 83.5563 170.284 83.4938C170.024 83.4313 169.737 83.4001 169.425 83.4001C168.3 83.4001 167.441 83.7645 166.848 84.4934C166.254 85.2222 165.958 86.2634 165.958 87.617V93.9579H163.959V81.932H165.958V83.8062C166.353 83.0773 166.884 82.5359 167.551 82.1819C168.217 81.8279 169.029 81.6509 169.987 81.6509C170.133 81.6509 170.284 81.6561 170.44 81.6665C170.596 81.6769 170.778 81.7029 170.987 81.7446V83.7749ZM177.734 83.3064C176.672 83.3064 175.834 83.7229 175.219 84.5558C174.605 85.3888 174.298 86.5237 174.298 87.9606C174.298 89.3974 174.6 90.5271 175.204 91.3497C175.807 92.1723 176.651 92.5835 177.734 92.5835C178.775 92.5835 179.603 92.1723 180.217 91.3497C180.831 90.5271 181.138 89.3974 181.138 87.9606C181.138 86.5237 180.831 85.3888 180.217 84.5558C179.603 83.7229 178.775 83.3064 177.734 83.3064ZM177.734 81.6509C179.441 81.6509 180.784 82.2079 181.763 83.322C182.742 84.4361 183.231 85.9823 183.231 87.9606C183.231 89.918 182.742 91.459 181.763 92.5835C180.784 93.708 179.441 94.2703 177.734 94.2703C176.005 94.2703 174.652 93.708 173.673 92.5835C172.694 91.459 172.205 89.918 172.205 87.9606C172.205 85.9823 172.694 84.4361 173.673 83.322C174.652 82.2079 176.005 81.6509 177.734 81.6509ZM195.132 87.9606C195.132 86.5029 194.83 85.3627 194.226 84.5402C193.622 83.7176 192.8 83.3064 191.759 83.3064C190.718 83.3064 189.9 83.7176 189.307 84.5402C188.713 85.3627 188.416 86.5029 188.416 87.9606C188.416 89.4182 188.713 90.5584 189.307 91.3809C189.9 92.2035 190.718 92.6147 191.759 92.6147C192.8 92.6147 193.622 92.2035 194.226 91.3809C194.83 90.5584 195.132 89.4182 195.132 87.9606ZM188.416 83.7437C188.812 83.0357 189.328 82.5099 189.963 82.1663C190.598 81.8227 191.363 81.6509 192.258 81.6509C193.716 81.6509 194.898 82.2287 195.804 83.3845C196.71 84.5402 197.162 86.0656 197.162 87.9606C197.162 89.8555 196.71 91.3809 195.804 92.5367C194.898 93.6924 193.716 94.2703 192.258 94.2703C191.363 94.2703 190.598 94.0984 189.963 93.7548C189.328 93.4113 188.812 92.875 188.416 92.1463V93.9579H186.417V77.2466H188.416V83.7437ZM205.097 83.3064C204.034 83.3064 203.196 83.7229 202.582 84.5558C201.968 85.3888 201.66 86.5237 201.66 87.9606C201.66 89.3974 201.962 90.5271 202.566 91.3497C203.17 92.1723 204.014 92.5835 205.097 92.5835C206.138 92.5835 206.965 92.1723 207.58 91.3497C208.194 90.5271 208.501 89.3974 208.501 87.9606C208.501 86.5237 208.194 85.3888 207.58 84.5558C206.965 83.7229 206.138 83.3064 205.097 83.3064ZM205.097 81.6509C206.804 81.6509 208.147 82.2079 209.126 83.322C210.105 84.4361 210.594 85.9823 210.594 87.9606C210.594 89.918 210.105 91.459 209.126 92.5835C208.147 93.708 206.804 94.2703 205.097 94.2703C203.368 94.2703 202.014 93.708 201.036 92.5835C200.057 91.459 199.568 89.918 199.568 87.9606C199.568 85.9823 200.057 84.4361 201.036 83.322C202.014 82.2079 203.368 81.6509 205.097 81.6509ZM215.811 78.5273V81.932H219.871V83.4626H215.811V89.9909C215.811 90.9696 215.946 91.5996 216.217 91.8807C216.487 92.1619 217.029 92.3024 217.841 92.3024H219.871V93.9579H217.841C216.321 93.9579 215.269 93.6716 214.686 93.0989C214.103 92.5263 213.811 91.4902 213.811 89.9909V83.4626H212.374V81.932H213.811V78.5273H215.811ZM225.993 77.9338H227.805L222.214 95.9882H220.402L225.993 77.9338ZM239.238 84.2435C239.737 83.348 240.331 82.6921 241.018 82.2756C241.705 81.8591 242.517 81.6509 243.454 81.6509C244.704 81.6509 245.667 82.0882 246.344 82.9628C247.02 83.8374 247.359 85.0868 247.359 86.7111V93.9579H245.36V86.7736C245.36 85.6074 245.157 84.7484 244.751 84.1966C244.345 83.6448 243.725 83.3689 242.892 83.3689C241.872 83.3689 241.065 83.7072 240.471 84.384C239.878 85.0608 239.581 85.9823 239.581 87.1484V93.9579H237.582V86.7736C237.582 85.6074 237.379 84.7484 236.973 84.1966C236.567 83.6448 235.937 83.3689 235.083 83.3689C234.084 83.3689 233.287 83.7072 232.694 84.384C232.1 85.0608 231.803 85.9823 231.803 87.1484V93.9579H229.804V81.932H231.803V83.8062C232.241 83.0565 232.777 82.5099 233.412 82.1663C234.047 81.8227 234.791 81.6509 235.645 81.6509C236.52 81.6509 237.264 81.8695 237.879 82.3068C238.493 82.7441 238.946 83.3897 239.238 84.2435ZM255.949 83.3064C254.887 83.3064 254.049 83.7229 253.434 84.5558C252.82 85.3888 252.513 86.5237 252.513 87.9606C252.513 89.3974 252.815 90.5271 253.419 91.3497C254.023 92.1723 254.866 92.5835 255.949 92.5835C256.99 92.5835 257.818 92.1723 258.432 91.3497C259.046 90.5271 259.354 89.3974 259.354 87.9606C259.354 86.5237 259.046 85.3888 258.432 84.5558C257.818 83.7229 256.99 83.3064 255.949 83.3064ZM255.949 81.6509C257.656 81.6509 259 82.2079 259.978 83.322C260.957 84.4361 261.446 85.9823 261.446 87.9606C261.446 89.918 260.957 91.459 259.978 92.5835C259 93.708 257.656 94.2703 255.949 94.2703C254.22 94.2703 252.867 93.708 251.888 92.5835C250.909 91.459 250.42 89.918 250.42 87.9606C250.42 85.9823 250.909 84.4361 251.888 83.322C252.867 82.2079 254.22 81.6509 255.949 81.6509ZM263.289 81.932H265.382L269.13 92.0213L272.91 81.932H275.003L270.474 93.9579H267.787L263.289 81.932ZM287.997 87.4608V88.4291H278.907C278.991 89.7827 279.397 90.8134 280.126 91.5215C280.854 92.2295 281.875 92.5835 283.187 92.5835C283.957 92.5835 284.696 92.4897 285.405 92.3024C286.112 92.1149 286.821 91.8442 287.529 91.4902V93.3332C286.821 93.6456 286.092 93.8797 285.342 94.036C284.592 94.1922 283.843 94.2703 283.093 94.2703C281.156 94.2703 279.631 93.7132 278.517 92.5991C277.403 91.485 276.846 89.9701 276.846 88.0543C276.846 86.0968 277.377 84.5402 278.439 83.3845C279.501 82.2287 280.938 81.6509 282.749 81.6509C284.353 81.6509 285.628 82.1715 286.576 83.2127C287.523 84.2539 287.997 85.6699 287.997 87.4608ZM285.998 86.8673C285.998 85.7844 285.701 84.9202 285.108 84.2747C284.514 83.6291 283.728 83.3064 282.749 83.3064C281.646 83.3064 280.766 83.6187 280.11 84.2435C279.454 84.8682 279.074 85.7428 278.97 86.8673H285.998ZM300.585 84.2435C301.085 83.348 301.679 82.6921 302.366 82.2756C303.053 81.8591 303.865 81.6509 304.802 81.6509C306.052 81.6509 307.015 82.0882 307.691 82.9628C308.368 83.8374 308.707 85.0868 308.707 86.7111V93.9579H306.707V86.7736C306.707 85.6074 306.504 84.7484 306.098 84.1966C305.692 83.6448 305.073 83.3689 304.24 83.3689C303.219 83.3689 302.413 83.7072 301.819 84.384C301.226 85.0608 300.929 85.9823 300.929 87.1484V93.9579H298.93V86.7736C298.93 85.6074 298.727 84.7484 298.321 84.1966C297.915 83.6448 297.285 83.3689 296.431 83.3689C295.431 83.3689 294.635 83.7072 294.041 84.384C293.448 85.0608 293.151 85.9823 293.151 87.1484V93.9579H291.152V81.932H293.151V83.8062C293.588 83.0565 294.124 82.5099 294.76 82.1663C295.395 81.8227 296.139 81.6509 296.993 81.6509C297.868 81.6509 298.612 81.8695 299.226 82.3068C299.841 82.7441 300.294 83.3897 300.585 84.2435ZM322.919 87.4608V88.4291H313.829C313.913 89.7827 314.319 90.8134 315.047 91.5215C315.776 92.2295 316.796 92.5835 318.109 92.5835C318.879 92.5835 319.619 92.4897 320.326 92.3024C321.034 92.1149 321.742 91.8442 322.451 91.4902V93.3332C321.742 93.6456 321.014 93.8797 320.264 94.036C319.515 94.1922 318.765 94.2703 318.015 94.2703C316.078 94.2703 314.553 93.7132 313.439 92.5991C312.324 91.485 311.768 89.9701 311.768 88.0543C311.768 86.0968 312.298 84.5402 313.361 83.3845C314.423 82.2287 315.86 81.6509 317.672 81.6509C319.275 81.6509 320.55 82.1715 321.498 83.2127C322.445 84.2539 322.919 85.6699 322.919 87.4608ZM320.92 86.8673C320.92 85.7844 320.622 84.9202 320.031 84.2747C319.437 83.6291 318.649 83.3064 317.672 83.3064C316.568 83.3064 315.688 83.6187 315.033 84.2435C314.375 84.8682 313.995 85.7428 313.891 86.8673H320.92ZM336.131 86.7111V93.9579H334.164V86.7736C334.164 85.6283 333.946 84.7745 333.509 84.2122C333.071 83.65 332.405 83.3689 331.509 83.3689C330.448 83.3689 329.608 83.7072 328.995 84.384C328.381 85.0608 328.073 85.9823 328.073 87.1484V93.9579H326.074V81.932H328.073V83.8062C328.531 83.0773 329.083 82.5359 329.728 82.1819C330.374 81.8279 331.114 81.6509 331.947 81.6509C333.321 81.6509 334.362 82.0778 335.07 82.9316C335.778 83.7853 336.131 85.0452 336.131 86.7111ZM342.035 78.5273V81.932H346.097V83.4626H342.035V89.9909C342.035 90.9696 342.171 91.5996 342.443 91.8807C342.712 92.1619 343.254 92.3024 344.066 92.3024H346.097V93.9579H344.066C342.547 93.9579 341.495 93.6716 340.911 93.0989C340.327 92.5263 340.036 91.4902 340.036 89.9909V83.4626H338.6V81.932H340.036V78.5273H342.035Z" fill="black" stroke="black" stroke-width="1.99911" stroke-linecap="square" stroke-linejoin="round"/>
<path d="M423.81 125.944H33.9873V195.913H423.81V125.944Z" stroke="black" stroke-width="1.99911" stroke-linecap="square" stroke-linejoin="round"/>
<path d="M93.3027 152.9H95.1144L89.5231 170.954H87.7114L93.3027 152.9ZM106.547 159.21C107.047 158.314 107.64 157.658 108.327 157.242C109.015 156.825 109.827 156.617 110.764 156.617C112.013 156.617 112.976 157.054 113.653 157.929C114.33 158.804 114.668 160.053 114.668 161.677V168.924H112.669V161.74C112.669 160.574 112.466 159.715 112.06 159.163C111.654 158.611 111.034 158.335 110.201 158.335C109.181 158.335 108.374 158.674 107.781 159.35C107.187 160.027 106.89 160.949 106.89 162.115V168.924H104.891V161.74C104.891 160.574 104.688 159.715 104.282 159.163C103.876 158.611 103.246 158.335 102.392 158.335C101.393 158.335 100.596 158.674 100.003 159.35C99.4093 160.027 99.1126 160.949 99.1126 162.115V168.924H97.1135V156.898H99.1126V158.772C99.5499 158.023 100.086 157.476 100.721 157.133C101.356 156.789 102.101 156.617 102.955 156.617C103.829 156.617 104.574 156.836 105.188 157.273C105.802 157.71 106.255 158.356 106.547 159.21ZM123.602 170.049C123.039 171.486 122.493 172.417 121.962 172.844C121.431 173.271 120.718 173.485 119.822 173.485H118.26V171.86H119.416C119.957 171.86 120.379 171.73 120.681 171.47C120.983 171.21 121.311 170.6 121.665 169.643L122.04 168.737L117.167 156.898H119.26L123.008 166.3L126.788 156.898H128.881L123.602 170.049ZM140.719 172.579V174.109H129.287V172.579H140.719ZM149.528 158.741C149.319 158.616 149.085 158.523 148.825 158.46C148.565 158.398 148.278 158.366 147.966 158.366C146.841 158.366 145.982 158.731 145.389 159.46C144.795 160.188 144.499 161.23 144.499 162.583V168.924H142.5V156.898H144.499V158.772C144.894 158.044 145.425 157.502 146.092 157.148C146.758 156.794 147.57 156.617 148.528 156.617C148.674 156.617 148.825 156.622 148.981 156.633C149.137 156.643 149.319 156.669 149.528 156.711V158.741ZM156.275 158.273C155.213 158.273 154.375 158.689 153.76 159.522C153.146 160.355 152.839 161.49 152.839 162.927C152.839 164.364 153.141 165.493 153.745 166.316C154.348 167.139 155.192 167.55 156.275 167.55C157.316 167.55 158.144 167.139 158.758 166.316C159.372 165.493 159.679 164.364 159.679 162.927C159.679 161.49 159.372 160.355 158.758 159.522C158.144 158.689 157.316 158.273 156.275 158.273ZM156.275 156.617C157.982 156.617 159.325 157.174 160.304 158.288C161.283 159.402 161.772 160.949 161.772 162.927C161.772 164.884 161.283 166.425 160.304 167.55C159.325 168.674 157.982 169.237 156.275 169.237C154.546 169.237 153.193 168.674 152.214 167.55C151.235 166.425 150.746 164.884 150.746 162.927C150.746 160.949 151.235 159.402 152.214 158.288C153.193 157.174 154.546 156.617 156.275 156.617ZM173.673 162.927C173.673 161.469 173.371 160.329 172.767 159.507C172.163 158.684 171.341 158.273 170.3 158.273C169.259 158.273 168.441 158.684 167.848 159.507C167.254 160.329 166.957 161.469 166.957 162.927C166.957 164.385 167.254 165.525 167.848 166.347C168.441 167.17 169.259 167.581 170.3 167.581C171.341 167.581 172.163 167.17 172.767 166.347C173.371 165.525 173.673 164.385 173.673 162.927ZM166.957 158.71C167.353 158.002 167.869 157.476 168.504 157.133C169.139 156.789 169.904 156.617 170.799 156.617C172.257 156.617 173.439 157.195 174.345 158.351C175.251 159.507 175.703 161.032 175.703 162.927C175.703 164.822 175.251 166.347 174.345 167.503C173.439 168.659 172.257 169.237 170.799 169.237C169.904 169.237 169.139 169.065 168.504 168.721C167.869 168.378 167.353 167.841 166.957 167.113V168.924H164.958V152.213H166.957V158.71ZM183.638 158.273C182.575 158.273 181.737 158.689 181.123 159.522C180.509 160.355 180.201 161.49 180.201 162.927C180.201 164.364 180.504 165.493 181.107 166.316C181.711 167.139 182.555 167.55 183.638 167.55C184.679 167.55 185.506 167.139 186.121 166.316C186.735 165.493 187.042 164.364 187.042 162.927C187.042 161.49 186.735 160.355 186.121 159.522C185.506 158.689 184.679 158.273 183.638 158.273ZM183.638 156.617C185.345 156.617 186.688 157.174 187.667 158.288C188.646 159.402 189.135 160.949 189.135 162.927C189.135 164.884 188.646 166.425 187.667 167.55C186.688 168.674 185.345 169.237 183.638 169.237C181.909 169.237 180.555 168.674 179.577 167.55C178.598 166.425 178.109 164.884 178.109 162.927C178.109 160.949 178.598 159.402 179.577 158.288C180.555 157.174 181.909 156.617 183.638 156.617ZM194.352 153.494V156.898H198.412V158.429H194.352V164.957C194.352 165.936 194.487 166.566 194.758 166.847C195.028 167.128 195.57 167.269 196.382 167.269H198.412V168.924H196.382C194.862 168.924 193.81 168.638 193.227 168.065C192.644 167.493 192.352 166.457 192.352 164.957V158.429H190.915V156.898H192.352V153.494H194.352ZM204.534 152.9H206.346L200.755 170.954H198.943L204.534 152.9ZM217.779 159.21C218.278 158.314 218.872 157.658 219.559 157.242C220.246 156.825 221.058 156.617 221.995 156.617C223.245 156.617 224.208 157.054 224.885 157.929C225.561 158.804 225.9 160.053 225.9 161.677V168.924H223.901V161.74C223.901 160.574 223.698 159.715 223.292 159.163C222.886 158.611 222.266 158.335 221.433 158.335C220.413 158.335 219.606 158.674 219.012 159.35C218.419 160.027 218.122 160.949 218.122 162.115V168.924H216.123V161.74C216.123 160.574 215.92 159.715 215.514 159.163C215.108 158.611 214.478 158.335 213.624 158.335C212.625 158.335 211.828 158.674 211.235 159.35C210.641 160.027 210.344 160.949 210.344 162.115V168.924H208.345V156.898H210.344V158.772C210.782 158.023 211.318 157.476 211.953 157.133C212.588 156.789 213.332 156.617 214.186 156.617C215.061 156.617 215.805 156.836 216.42 157.273C217.034 157.71 217.487 158.356 217.779 159.21ZM234.49 158.273C233.428 158.273 232.59 158.689 231.975 159.522C231.361 160.355 231.054 161.49 231.054 162.927C231.054 164.364 231.356 165.493 231.96 166.316C232.564 167.139 233.407 167.55 234.49 167.55C235.531 167.55 236.359 167.139 236.973 166.316C237.587 165.493 237.895 164.364 237.895 162.927C237.895 161.49 237.587 160.355 236.973 159.522C236.359 158.689 235.531 158.273 234.49 158.273ZM234.49 156.617C236.197 156.617 237.541 157.174 238.519 158.288C239.498 159.402 239.987 160.949 239.987 162.927C239.987 164.884 239.498 166.425 238.519 167.55C237.541 168.674 236.197 169.237 234.49 169.237C232.761 169.237 231.408 168.674 230.429 167.55C229.45 166.425 228.961 164.884 228.961 162.927C228.961 160.949 229.45 159.402 230.429 158.288C231.408 157.174 232.761 156.617 234.49 156.617ZM241.83 156.898H243.923L247.671 166.988L251.451 156.898H253.544L249.015 168.924H246.328L241.83 156.898ZM266.538 162.427V163.395H257.448C257.532 164.749 257.938 165.78 258.667 166.488C259.395 167.196 260.416 167.55 261.728 167.55C262.498 167.55 263.237 167.456 263.946 167.269C264.653 167.081 265.362 166.811 266.07 166.457V168.299C265.362 168.612 264.633 168.846 263.883 169.002C263.133 169.158 262.384 169.237 261.634 169.237C259.697 169.237 258.172 168.68 257.058 167.565C255.944 166.451 255.387 164.936 255.387 163.021C255.387 161.063 255.918 159.507 256.98 158.351C258.042 157.195 259.479 156.617 261.29 156.617C262.894 156.617 264.169 157.138 265.117 158.179C266.064 159.22 266.538 160.636 266.538 162.427ZM264.539 161.834C264.539 160.751 264.242 159.887 263.649 159.241C263.055 158.595 262.269 158.273 261.29 158.273C260.187 158.273 259.307 158.585 258.651 159.21C257.995 159.834 257.615 160.709 257.511 161.834H264.539ZM279.126 159.21C279.626 158.314 280.22 157.658 280.907 157.242C281.594 156.825 282.406 156.617 283.343 156.617C284.593 156.617 285.556 157.054 286.232 157.929C286.909 158.804 287.248 160.053 287.248 161.677V168.924H285.248V161.74C285.248 160.574 285.045 159.715 284.639 159.163C284.233 158.611 283.614 158.335 282.781 158.335C281.76 158.335 280.954 158.674 280.36 159.35C279.767 160.027 279.47 160.949 279.47 162.115V168.924H277.471V161.74C277.471 160.574 277.268 159.715 276.862 159.163C276.456 158.611 275.826 158.335 274.972 158.335C273.972 158.335 273.176 158.674 272.582 159.35C271.989 160.027 271.692 160.949 271.692 162.115V168.924H269.693V156.898H271.692V158.772C272.129 158.023 272.665 157.476 273.301 157.133C273.936 156.789 274.68 156.617 275.534 156.617C276.409 156.617 277.153 156.836 277.767 157.273C278.382 157.71 278.835 158.356 279.126 159.21ZM301.46 162.427V163.395H292.37C292.454 164.749 292.86 165.78 293.588 166.488C294.317 167.196 295.337 167.55 296.65 167.55C297.42 167.55 298.16 167.456 298.867 167.269C299.575 167.081 300.283 166.811 300.992 166.457V168.299C300.283 168.612 299.555 168.846 298.805 169.002C298.056 169.158 297.306 169.237 296.556 169.237C294.619 169.237 293.094 168.68 291.98 167.565C290.865 166.451 290.309 164.936 290.309 163.021C290.309 161.063 290.839 159.507 291.903 158.351C292.964 157.195 294.401 156.617 296.213 156.617C297.816 156.617 299.091 157.138 300.039 158.179C300.986 159.22 301.46 160.636 301.46 162.427ZM299.461 161.834C299.461 160.751 299.163 159.887 298.572 159.241C297.978 158.595 297.19 158.273 296.213 158.273C295.109 158.273 294.229 158.585 293.574 159.21C292.916 159.834 292.536 160.709 292.432 161.834H299.461ZM314.672 161.677V168.924H312.705V161.74C312.705 160.595 312.487 159.741 312.05 159.179C311.612 158.616 310.946 158.335 310.05 158.335C308.989 158.335 308.149 158.674 307.536 159.35C306.922 160.027 306.614 160.949 306.614 162.115V168.924H304.615V156.898H306.614V158.772C307.072 158.044 307.624 157.502 308.269 157.148C308.915 156.794 309.655 156.617 310.488 156.617C311.862 156.617 312.903 157.044 313.611 157.898C314.319 158.752 314.672 160.011 314.672 161.677ZM320.576 153.494V156.898H324.638V158.429H320.576V164.957C320.576 165.936 320.712 166.566 320.984 166.847C321.253 167.128 321.795 167.269 322.607 167.269H324.638V168.924H322.607C321.088 168.924 320.036 168.638 319.452 168.065C318.868 167.493 318.577 166.457 318.577 164.957V158.429H317.141V156.898H318.577V153.494H320.576ZM330.759 152.9H332.57L326.981 170.954H325.168L330.759 152.9ZM344.629 156.898L340.287 162.739L344.879 168.924H342.536L339.038 164.208L335.539 168.924H333.196L337.882 162.646L333.602 156.898H335.945L339.131 161.178L342.316 156.898H344.629ZM352.655 170.049C352.094 171.486 351.548 172.417 351.016 172.844C350.484 173.271 349.773 173.485 348.877 173.485H347.314V171.86H348.471C349.011 171.86 349.433 171.73 349.735 171.47C350.037 171.21 350.365 170.6 350.72 169.643L351.094 168.737L346.222 156.898H348.313L352.062 166.3L355.842 156.898H357.935L352.655 170.049ZM359.778 156.898H369.148V158.71L361.715 167.331H369.148V168.924H359.496V167.113L366.931 158.491H359.778V156.898Z" fill="black" stroke="black" stroke-width="1.99911" stroke-linecap="square" stroke-linejoin="round"/>
<path d="M423.81 125.944H33.9873V195.913H423.81V125.944Z" stroke="black" stroke-width="1.99911" stroke-linecap="square" stroke-linejoin="round"/>
<path d="M93.3027 152.9H95.1144L89.5231 170.954H87.7114L93.3027 152.9ZM106.547 159.21C107.047 158.314 107.64 157.658 108.327 157.242C109.015 156.825 109.827 156.617 110.764 156.617C112.013 156.617 112.976 157.054 113.653 157.929C114.33 158.804 114.668 160.053 114.668 161.677V168.924H112.669V161.74C112.669 160.574 112.466 159.715 112.06 159.163C111.654 158.611 111.034 158.335 110.201 158.335C109.181 158.335 108.374 158.674 107.781 159.35C107.187 160.027 106.89 160.949 106.89 162.115V168.924H104.891V161.74C104.891 160.574 104.688 159.715 104.282 159.163C103.876 158.611 103.246 158.335 102.392 158.335C101.393 158.335 100.596 158.674 100.003 159.35C99.4093 160.027 99.1126 160.949 99.1126 162.115V168.924H97.1135V156.898H99.1126V158.772C99.5499 158.023 100.086 157.476 100.721 157.133C101.356 156.789 102.101 156.617 102.955 156.617C103.829 156.617 104.574 156.836 105.188 157.273C105.802 157.71 106.255 158.356 106.547 159.21ZM123.602 170.049C123.039 171.486 122.493 172.417 121.962 172.844C121.431 173.271 120.718 173.485 119.822 173.485H118.26V171.86H119.416C119.957 171.86 120.379 171.73 120.681 171.47C120.983 171.21 121.311 170.6 121.665 169.643L122.04 168.737L117.167 156.898H119.26L123.008 166.3L126.788 156.898H128.881L123.602 170.049ZM140.719 172.579V174.109H129.287V172.579H140.719ZM149.528 158.741C149.319 158.616 149.085 158.523 148.825 158.46C148.565 158.398 148.278 158.366 147.966 158.366C146.841 158.366 145.982 158.731 145.389 159.46C144.795 160.188 144.499 161.23 144.499 162.583V168.924H142.5V156.898H144.499V158.772C144.894 158.044 145.425 157.502 146.092 157.148C146.758 156.794 147.57 156.617 148.528 156.617C148.674 156.617 148.825 156.622 148.981 156.633C149.137 156.643 149.319 156.669 149.528 156.711V158.741ZM156.275 158.273C155.213 158.273 154.375 158.689 153.76 159.522C153.146 160.355 152.839 161.49 152.839 162.927C152.839 164.364 153.141 165.493 153.745 166.316C154.348 167.139 155.192 167.55 156.275 167.55C157.316 167.55 158.144 167.139 158.758 166.316C159.372 165.493 159.679 164.364 159.679 162.927C159.679 161.49 159.372 160.355 158.758 159.522C158.144 158.689 157.316 158.273 156.275 158.273ZM156.275 156.617C157.982 156.617 159.325 157.174 160.304 158.288C161.283 159.402 161.772 160.949 161.772 162.927C161.772 164.884 161.283 166.425 160.304 167.55C159.325 168.674 157.982 169.237 156.275 169.237C154.546 169.237 153.193 168.674 152.214 167.55C151.235 166.425 150.746 164.884 150.746 162.927C150.746 160.949 151.235 159.402 152.214 158.288C153.193 157.174 154.546 156.617 156.275 156.617ZM173.673 162.927C173.673 161.469 173.371 160.329 172.767 159.507C172.163 158.684 171.341 158.273 170.3 158.273C169.259 158.273 168.441 158.684 167.848 159.507C167.254 160.329 166.957 161.469 166.957 162.927C166.957 164.385 167.254 165.525 167.848 166.347C168.441 167.17 169.259 167.581 170.3 167.581C171.341 167.581 172.163 167.17 172.767 166.347C173.371 165.525 173.673 164.385 173.673 162.927ZM166.957 158.71C167.353 158.002 167.869 157.476 168.504 157.133C169.139 156.789 169.904 156.617 170.799 156.617C172.257 156.617 173.439 157.195 174.345 158.351C175.251 159.507 175.703 161.032 175.703 162.927C175.703 164.822 175.251 166.347 174.345 167.503C173.439 168.659 172.257 169.237 170.799 169.237C169.904 169.237 169.139 169.065 168.504 168.721C167.869 168.378 167.353 167.841 166.957 167.113V168.924H164.958V152.213H166.957V158.71ZM183.638 158.273C182.575 158.273 181.737 158.689 181.123 159.522C180.509 160.355 180.201 161.49 180.201 162.927C180.201 164.364 180.504 165.493 181.107 166.316C181.711 167.139 182.555 167.55 183.638 167.55C184.679 167.55 185.506 167.139 186.121 166.316C186.735 165.493 187.042 164.364 187.042 162.927C187.042 161.49 186.735 160.355 186.121 159.522C185.506 158.689 184.679 158.273 183.638 158.273ZM183.638 156.617C185.345 156.617 186.688 157.174 187.667 158.288C188.646 159.402 189.135 160.949 189.135 162.927C189.135 164.884 188.646 166.425 187.667 167.55C186.688 168.674 185.345 169.237 183.638 169.237C181.909 169.237 180.555 168.674 179.577 167.55C178.598 166.425 178.109 164.884 178.109 162.927C178.109 160.949 178.598 159.402 179.577 158.288C180.555 157.174 181.909 156.617 183.638 156.617ZM194.352 153.494V156.898H198.412V158.429H194.352V164.957C194.352 165.936 194.487 166.566 194.758 166.847C195.028 167.128 195.57 167.269 196.382 167.269H198.412V168.924H196.382C194.862 168.924 193.81 168.638 193.227 168.065C192.644 167.493 192.352 166.457 192.352 164.957V158.429H190.915V156.898H192.352V153.494H194.352ZM204.534 152.9H206.346L200.755 170.954H198.943L204.534 152.9ZM217.779 159.21C218.278 158.314 218.872 157.658 219.559 157.242C220.246 156.825 221.058 156.617 221.995 156.617C223.245 156.617 224.208 157.054 224.885 157.929C225.561 158.804 225.9 160.053 225.9 161.677V168.924H223.901V161.74C223.901 160.574 223.698 159.715 223.292 159.163C222.886 158.611 222.266 158.335 221.433 158.335C220.413 158.335 219.606 158.674 219.012 159.35C218.419 160.027 218.122 160.949 218.122 162.115V168.924H216.123V161.74C216.123 160.574 215.92 159.715 215.514 159.163C215.108 158.611 214.478 158.335 213.624 158.335C212.625 158.335 211.828 158.674 211.235 159.35C210.641 160.027 210.344 160.949 210.344 162.115V168.924H208.345V156.898H210.344V158.772C210.782 158.023 211.318 157.476 211.953 157.133C212.588 156.789 213.332 156.617 214.186 156.617C215.061 156.617 215.805 156.836 216.42 157.273C217.034 157.71 217.487 158.356 217.779 159.21ZM234.49 158.273C233.428 158.273 232.59 158.689 231.975 159.522C231.361 160.355 231.054 161.49 231.054 162.927C231.054 164.364 231.356 165.493 231.96 166.316C232.564 167.139 233.407 167.55 234.49 167.55C235.531 167.55 236.359 167.139 236.973 166.316C237.587 165.493 237.895 164.364 237.895 162.927C237.895 161.49 237.587 160.355 236.973 159.522C236.359 158.689 235.531 158.273 234.49 158.273ZM234.49 156.617C236.197 156.617 237.541 157.174 238.519 158.288C239.498 159.402 239.987 160.949 239.987 162.927C239.987 164.884 239.498 166.425 238.519 167.55C237.541 168.674 236.197 169.237 234.49 169.237C232.761 169.237 231.408 168.674 230.429 167.55C229.45 166.425 228.961 164.884 228.961 162.927C228.961 160.949 229.45 159.402 230.429 158.288C231.408 157.174 232.761 156.617 234.49 156.617ZM241.83 156.898H243.923L247.671 166.988L251.451 156.898H253.544L249.015 168.924H246.328L241.83 156.898ZM266.538 162.427V163.395H257.448C257.532 164.749 257.938 165.78 258.667 166.488C259.395 167.196 260.416 167.55 261.728 167.55C262.498 167.55 263.237 167.456 263.946 167.269C264.653 167.081 265.362 166.811 266.07 166.457V168.299C265.362 168.612 264.633 168.846 263.883 169.002C263.133 169.158 262.384 169.237 261.634 169.237C259.697 169.237 258.172 168.68 257.058 167.565C255.944 166.451 255.387 164.936 255.387 163.021C255.387 161.063 255.918 159.507 256.98 158.351C258.042 157.195 259.479 156.617 261.29 156.617C262.894 156.617 264.169 157.138 265.117 158.179C266.064 159.22 266.538 160.636 266.538 162.427ZM264.539 161.834C264.539 160.751 264.242 159.887 263.649 159.241C263.055 158.595 262.269 158.273 261.29 158.273C260.187 158.273 259.307 158.585 258.651 159.21C257.995 159.834 257.615 160.709 257.511 161.834H264.539ZM279.126 159.21C279.626 158.314 280.22 157.658 280.907 157.242C281.594 156.825 282.406 156.617 283.343 156.617C284.593 156.617 285.556 157.054 286.232 157.929C286.909 158.804 287.248 160.053 287.248 161.677V168.924H285.248V161.74C285.248 160.574 285.045 159.715 284.639 159.163C284.233 158.611 283.614 158.335 282.781 158.335C281.76 158.335 280.954 158.674 280.36 159.35C279.767 160.027 279.47 160.949 279.47 162.115V168.924H277.471V161.74C277.471 160.574 277.268 159.715 276.862 159.163C276.456 158.611 275.826 158.335 274.972 158.335C273.972 158.335 273.176 158.674 272.582 159.35C271.989 160.027 271.692 160.949 271.692 162.115V168.924H269.693V156.898H271.692V158.772C272.129 158.023 272.665 157.476 273.301 157.133C273.936 156.789 274.68 156.617 275.534 156.617C276.409 156.617 277.153 156.836 277.767 157.273C278.382 157.71 278.835 158.356 279.126 159.21ZM301.46 162.427V163.395H292.37C292.454 164.749 292.86 165.78 293.588 166.488C294.317 167.196 295.337 167.55 296.65 167.55C297.42 167.55 298.16 167.456 298.867 167.269C299.575 167.081 300.283 166.811 300.992 166.457V168.299C300.283 168.612 299.555 168.846 298.805 169.002C298.056 169.158 297.306 169.237 296.556 169.237C294.619 169.237 293.094 168.68 291.98 167.565C290.865 166.451 290.309 164.936 290.309 163.021C290.309 161.063 290.839 159.507 291.903 158.351C292.964 157.195 294.401 156.617 296.213 156.617C297.816 156.617 299.091 157.138 300.039 158.179C300.986 159.22 301.46 160.636 301.46 162.427ZM299.461 161.834C299.461 160.751 299.163 159.887 298.572 159.241C297.978 158.595 297.19 158.273 296.213 158.273C295.109 158.273 294.229 158.585 293.574 159.21C292.916 159.834 292.536 160.709 292.432 161.834H299.461ZM314.672 161.677V168.924H312.705V161.74C312.705 160.595 312.487 159.741 312.05 159.179C311.612 158.616 310.946 158.335 310.05 158.335C308.989 158.335 308.149 158.674 307.536 159.35C306.922 160.027 306.614 160.949 306.614 162.115V168.924H304.615V156.898H306.614V158.772C307.072 158.044 307.624 157.502 308.269 157.148C308.915 156.794 309.655 156.617 310.488 156.617C311.862 156.617 312.903 157.044 313.611 157.898C314.319 158.752 314.672 160.011 314.672 161.677ZM320.576 153.494V156.898H324.638V158.429H320.576V164.957C320.576 165.936 320.712 166.566 320.984 166.847C321.253 167.128 321.795 167.269 322.607 167.269H324.638V168.924H322.607C321.088 168.924 320.036 168.638 319.452 168.065C318.868 167.493 318.577 166.457 318.577 164.957V158.429H317.141V156.898H318.577V153.494H320.576ZM330.759 152.9H332.57L326.981 170.954H325.168L330.759 152.9ZM344.629 156.898L340.287 162.739L344.879 168.924H342.536L339.038 164.208L335.539 168.924H333.196L337.882 162.646L333.602 156.898H335.945L339.131 161.178L342.316 156.898H344.629ZM352.655 170.049C352.094 171.486 351.548 172.417 351.016 172.844C350.484 173.271 349.773 173.485 348.877 173.485H347.314V171.86H348.471C349.011 171.86 349.433 171.73 349.735 171.47C350.037 171.21 350.365 170.6 350.72 169.643L351.094 168.737L346.222 156.898H348.313L352.062 166.3L355.842 156.898H357.935L352.655 170.049ZM359.778 156.898H369.148V158.71L361.715 167.331H369.148V168.924H359.496V167.113L366.931 158.491H359.778V156.898Z" fill="black" stroke="black" stroke-width="1.99911" stroke-linecap="square" stroke-linejoin="round"/>
<path d="M386.828 228.899H70.9688V378.832H386.828V228.899Z" stroke="black" stroke-width="1.99911" stroke-linecap="square" stroke-linejoin="round"/>
<path d="M153.23 243.86H155.042L149.45 261.914H147.639L153.23 243.86ZM166.474 250.17C166.974 249.274 167.567 248.618 168.254 248.202C168.942 247.785 169.754 247.577 170.691 247.577C171.94 247.577 172.903 248.014 173.58 248.889C174.257 249.764 174.595 251.013 174.595 252.637V259.884H172.596V252.7C172.596 251.534 172.393 250.675 171.987 250.123C171.581 249.571 170.962 249.295 170.129 249.295C169.108 249.295 168.301 249.634 167.708 250.31C167.114 250.987 166.818 251.909 166.818 253.075V259.884H164.819V252.7C164.819 251.534 164.615 250.675 164.209 250.123C163.803 249.571 163.173 249.295 162.32 249.295C161.32 249.295 160.524 249.634 159.93 250.31C159.337 250.987 159.04 251.909 159.04 253.075V259.884H157.041V247.858H159.04V249.732C159.477 248.983 160.013 248.436 160.649 248.093C161.284 247.749 162.028 247.577 162.882 247.577C163.756 247.577 164.501 247.796 165.115 248.233C165.73 248.67 166.182 249.316 166.474 250.17ZM183.529 261.009C182.967 262.446 182.42 263.377 181.889 263.804C181.358 264.231 180.645 264.445 179.749 264.445H178.188V262.82H179.343C179.885 262.82 180.306 262.69 180.608 262.43C180.91 262.17 181.238 261.56 181.592 260.603L181.967 259.697L177.094 247.858H179.187L182.936 257.26L186.715 247.858H188.808L183.529 261.009ZM200.646 263.539V265.069H189.214V263.539H200.646ZM209.455 249.701C209.247 249.576 209.012 249.483 208.752 249.42C208.492 249.358 208.206 249.326 207.893 249.326C206.769 249.326 205.91 249.691 205.316 250.42C204.723 251.148 204.426 252.19 204.426 253.543V259.884H202.427V247.858H204.426V249.732C204.822 249.004 205.353 248.462 206.019 248.108C206.685 247.754 207.497 247.577 208.455 247.577C208.601 247.577 208.752 247.582 208.908 247.593C209.065 247.603 209.247 247.629 209.455 247.671V249.701ZM216.202 249.233C215.14 249.233 214.302 249.649 213.687 250.482C213.073 251.315 212.766 252.45 212.766 253.887C212.766 255.324 213.068 256.453 213.672 257.276C214.276 258.099 215.119 258.51 216.202 258.51C217.243 258.51 218.071 258.099 218.685 257.276C219.3 256.453 219.607 255.324 219.607 253.887C219.607 252.45 219.3 251.315 218.685 250.482C218.071 249.649 217.243 249.233 216.202 249.233ZM216.202 247.577C217.909 247.577 219.253 248.134 220.231 249.248C221.21 250.362 221.7 251.909 221.7 253.887C221.7 255.844 221.21 257.385 220.231 258.51C219.253 259.634 217.909 260.197 216.202 260.197C214.474 260.197 213.12 259.634 212.141 258.51C211.162 257.385 210.673 255.844 210.673 253.887C210.673 251.909 211.162 250.362 212.141 249.248C213.12 248.134 214.474 247.577 216.202 247.577ZM233.6 253.887C233.6 252.429 233.299 251.289 232.695 250.466C232.091 249.644 231.268 249.233 230.227 249.233C229.186 249.233 228.368 249.644 227.775 250.466C227.181 251.289 226.885 252.429 226.885 253.887C226.885 255.345 227.181 256.485 227.775 257.307C228.368 258.13 229.186 258.541 230.227 258.541C231.268 258.541 232.091 258.13 232.695 257.307C233.299 256.485 233.6 255.345 233.6 253.887ZM226.885 249.67C227.28 248.962 227.796 248.436 228.431 248.093C229.066 247.749 229.831 247.577 230.727 247.577C232.184 247.577 233.366 248.155 234.272 249.311C235.178 250.466 235.631 251.992 235.631 253.887C235.631 255.782 235.178 257.307 234.272 258.463C233.366 259.619 232.184 260.197 230.727 260.197C229.831 260.197 229.066 260.025 228.431 259.681C227.796 259.338 227.28 258.801 226.885 258.073V259.884H224.885V243.173H226.885V249.67ZM243.565 249.233C242.503 249.233 241.665 249.649 241.05 250.482C240.436 251.315 240.129 252.45 240.129 253.887C240.129 255.324 240.431 256.453 241.035 257.276C241.638 258.099 242.482 258.51 243.565 258.51C244.606 258.51 245.434 258.099 246.048 257.276C246.662 256.453 246.969 255.324 246.969 253.887C246.969 252.45 246.662 251.315 246.048 250.482C245.434 249.649 244.606 249.233 243.565 249.233ZM243.565 247.577C245.272 247.577 246.615 248.134 247.594 249.248C248.573 250.362 249.062 251.909 249.062 253.887C249.062 255.844 248.573 257.385 247.594 258.51C246.615 259.634 245.272 260.197 243.565 260.197C241.836 260.197 240.483 259.634 239.504 258.51C238.525 257.385 238.036 255.844 238.036 253.887C238.036 251.909 238.525 250.362 239.504 249.248C240.483 248.134 241.836 247.577 243.565 247.577ZM254.279 244.454V247.858H258.339V249.389H254.279V255.917C254.279 256.896 254.414 257.526 254.685 257.807C254.955 258.088 255.497 258.229 256.309 258.229H258.339V259.884H256.309C254.789 259.884 253.737 259.598 253.154 259.025C252.571 258.453 252.28 257.417 252.28 255.917V249.389H250.843V247.858H252.28V244.454H254.279ZM264.462 243.86H266.273L260.682 261.914H258.87L264.462 243.86ZM273.801 253.824C272.219 253.824 271.12 254.012 270.506 254.387C269.891 254.761 269.584 255.386 269.584 256.261C269.584 256.948 269.813 257.5 270.272 257.916C270.73 258.333 271.354 258.541 272.146 258.541C273.249 258.541 274.129 258.151 274.785 257.37C275.441 256.589 275.769 255.563 275.769 254.293V253.824H273.801ZM277.737 253.012V259.884H275.769V258.073C275.332 258.801 274.775 259.338 274.098 259.681C273.421 260.025 272.593 260.197 271.615 260.197C270.386 260.197 269.407 259.853 268.679 259.166C267.95 258.479 267.585 257.552 267.585 256.386C267.585 255.032 268.038 254.012 268.944 253.325C269.85 252.637 271.209 252.294 273.02 252.294H275.769V252.106C275.769 251.19 275.472 250.482 274.879 249.982C274.285 249.483 273.447 249.233 272.364 249.233C271.677 249.233 271.006 249.316 270.35 249.483C269.694 249.649 269.064 249.899 268.46 250.232V248.421C269.189 248.129 269.897 247.916 270.584 247.78C271.271 247.645 271.927 247.577 272.552 247.577C274.301 247.577 275.603 248.025 276.456 248.92C277.31 249.816 277.737 251.18 277.737 253.012ZM288.763 249.701C288.555 249.576 288.321 249.483 288.061 249.42C287.8 249.358 287.514 249.326 287.202 249.326C286.077 249.326 285.218 249.691 284.624 250.42C284.031 251.148 283.734 252.19 283.734 253.543V259.884H281.735V247.858H283.734V249.732C284.13 249.004 284.661 248.462 285.327 248.108C285.994 247.754 286.806 247.577 287.764 247.577C287.91 247.577 288.061 247.582 288.217 247.593C288.373 247.603 288.555 247.629 288.763 247.671V249.701ZM300.196 250.17C300.696 249.274 301.289 248.618 301.976 248.202C302.663 247.785 303.475 247.577 304.413 247.577C305.662 247.577 306.625 248.014 307.302 248.889C307.979 249.764 308.317 251.013 308.317 252.637V259.884H306.318V252.7C306.318 251.534 306.115 250.675 305.709 250.123C305.303 249.571 304.683 249.295 303.85 249.295C302.83 249.295 302.023 249.634 301.43 250.31C300.836 250.987 300.539 251.909 300.539 253.075V259.884H298.54V252.7C298.54 251.534 298.337 250.675 297.931 250.123C297.525 249.571 296.895 249.295 296.041 249.295C295.042 249.295 294.245 249.634 293.652 250.31C293.058 250.987 292.762 251.909 292.762 253.075V259.884H290.763V247.858H292.762V249.732C293.199 248.983 293.735 248.436 294.37 248.093C295.005 247.749 295.75 247.577 296.604 247.577C297.478 247.577 298.223 247.796 298.837 248.233C299.451 248.67 299.904 249.316 300.196 250.17Z" fill="black" stroke="black" stroke-width="1.99911" stroke-linecap="square" stroke-linejoin="round"/>
<path d="M369.833 291.871H87.9629V361.839H369.833V291.871Z" stroke="black" stroke-width="1.99911" stroke-linecap="square" stroke-linejoin="round"/>
<path d="M136.534 318.827H138.345L132.754 336.881H130.942L136.534 318.827ZM149.778 325.137C150.278 324.241 150.871 323.585 151.558 323.169C152.245 322.752 153.058 322.544 153.995 322.544C155.244 322.544 156.207 322.981 156.884 323.856C157.561 324.73 157.899 325.98 157.899 327.604V334.851H155.9V327.667C155.9 326.501 155.697 325.642 155.291 325.09C154.885 324.538 154.265 324.262 153.432 324.262C152.412 324.262 151.605 324.6 151.012 325.277C150.418 325.954 150.121 326.875 150.121 328.041V334.851H148.122V327.667C148.122 326.501 147.919 325.642 147.513 325.09C147.107 324.538 146.477 324.262 145.623 324.262C144.624 324.262 143.827 324.6 143.234 325.277C142.64 325.954 142.344 326.875 142.344 328.041V334.851H140.344V322.825H142.344V324.699C142.781 323.95 143.317 323.403 143.952 323.059C144.587 322.716 145.332 322.544 146.186 322.544C147.06 322.544 147.805 322.763 148.419 323.2C149.033 323.637 149.486 324.283 149.778 325.137ZM166.833 335.975C166.27 337.412 165.724 338.344 165.193 338.771C164.662 339.198 163.948 339.412 163.053 339.412H161.491V337.787H162.647C163.188 337.787 163.61 337.657 163.912 337.397C164.214 337.136 164.542 336.527 164.896 335.569L165.271 334.664L160.398 322.825H162.491L166.239 332.227L170.019 322.825H172.112L166.833 335.975ZM183.95 338.506V340.036H172.518V338.506H183.95ZM192.759 324.668C192.55 324.543 192.316 324.449 192.056 324.387C191.795 324.324 191.509 324.293 191.197 324.293C190.072 324.293 189.213 324.658 188.62 325.386C188.026 326.115 187.73 327.156 187.73 328.51V334.851H185.731V322.825H187.73V324.699C188.125 323.97 188.656 323.429 189.323 323.075C189.989 322.721 190.801 322.544 191.759 322.544C191.905 322.544 192.056 322.549 192.212 322.56C192.368 322.57 192.55 322.596 192.759 322.638V324.668ZM199.506 324.199C198.444 324.199 197.606 324.616 196.991 325.449C196.377 326.282 196.07 327.417 196.07 328.854C196.07 330.29 196.372 331.42 196.976 332.243C197.579 333.065 198.423 333.477 199.506 333.477C200.547 333.477 201.375 333.065 201.989 332.243C202.603 331.42 202.91 330.29 202.91 328.854C202.91 327.417 202.603 326.282 201.989 325.449C201.375 324.616 200.547 324.199 199.506 324.199ZM199.506 322.544C201.213 322.544 202.556 323.101 203.535 324.215C204.514 325.329 205.003 326.875 205.003 328.854C205.003 330.811 204.514 332.352 203.535 333.477C202.556 334.601 201.213 335.163 199.506 335.163C197.777 335.163 196.424 334.601 195.445 333.477C194.466 332.352 193.977 330.811 193.977 328.854C193.977 326.875 194.466 325.329 195.445 324.215C196.424 323.101 197.777 322.544 199.506 322.544ZM216.904 328.854C216.904 327.396 216.602 326.256 215.998 325.433C215.394 324.611 214.572 324.199 213.531 324.199C212.489 324.199 211.672 324.611 211.079 325.433C210.485 326.256 210.188 327.396 210.188 328.854C210.188 330.311 210.485 331.451 211.079 332.274C211.672 333.097 212.489 333.508 213.531 333.508C214.572 333.508 215.394 333.097 215.998 332.274C216.602 331.451 216.904 330.311 216.904 328.854ZM210.188 324.637C210.584 323.929 211.099 323.403 211.735 323.059C212.37 322.716 213.135 322.544 214.03 322.544C215.488 322.544 216.67 323.122 217.576 324.278C218.482 325.433 218.934 326.959 218.934 328.854C218.934 330.749 218.482 332.274 217.576 333.43C216.67 334.585 215.488 335.163 214.03 335.163C213.135 335.163 212.37 334.991 211.735 334.648C211.099 334.304 210.584 333.768 210.188 333.039V334.851H208.189V318.14H210.188V324.637ZM226.868 324.199C225.806 324.199 224.968 324.616 224.354 325.449C223.74 326.282 223.432 327.417 223.432 328.854C223.432 330.29 223.734 331.42 224.338 332.243C224.942 333.065 225.786 333.477 226.868 333.477C227.91 333.477 228.737 333.065 229.352 332.243C229.966 331.42 230.273 330.29 230.273 328.854C230.273 327.417 229.966 326.282 229.352 325.449C228.737 324.616 227.91 324.199 226.868 324.199ZM226.868 322.544C228.576 322.544 229.919 323.101 230.898 324.215C231.877 325.329 232.366 326.875 232.366 328.854C232.366 330.811 231.877 332.352 230.898 333.477C229.919 334.601 228.576 335.163 226.868 335.163C225.14 335.163 223.786 334.601 222.808 333.477C221.829 332.352 221.34 330.811 221.34 328.854C221.34 326.875 221.829 325.329 222.808 324.215C223.786 323.101 225.14 322.544 226.868 322.544ZM237.583 319.42V322.825H241.643V324.356H237.583V330.884C237.583 331.863 237.718 332.493 237.989 332.774C238.259 333.055 238.801 333.195 239.613 333.195H241.643V334.851H239.613C238.093 334.851 237.041 334.565 236.458 333.992C235.875 333.419 235.583 332.383 235.583 330.884V324.356H234.146V322.825H235.583V319.42H237.583ZM247.765 318.827H249.577L243.986 336.881H242.174L247.765 318.827ZM257.105 328.791C255.522 328.791 254.424 328.979 253.809 329.353C253.195 329.728 252.888 330.353 252.888 331.228C252.888 331.915 253.117 332.467 253.575 332.883C254.033 333.3 254.658 333.508 255.45 333.508C256.553 333.508 257.433 333.117 258.089 332.336C258.745 331.556 259.073 330.53 259.073 329.26V328.791H257.105ZM261.041 327.979V334.851H259.073V333.039C258.636 333.768 258.079 334.304 257.402 334.648C256.725 334.991 255.897 335.163 254.918 335.163C253.69 335.163 252.711 334.82 251.982 334.132C251.253 333.445 250.889 332.519 250.889 331.353C250.889 329.999 251.342 328.979 252.248 328.291C253.154 327.604 254.512 327.261 256.324 327.261H259.073V327.073C259.073 326.157 258.776 325.449 258.183 324.949C257.589 324.449 256.751 324.199 255.668 324.199C254.981 324.199 254.309 324.283 253.653 324.449C252.997 324.616 252.368 324.866 251.764 325.199V323.387C252.492 323.096 253.201 322.882 253.888 322.747C254.575 322.612 255.231 322.544 255.856 322.544C257.605 322.544 258.906 322.992 259.76 323.887C260.614 324.783 261.041 326.146 261.041 327.979ZM272.067 324.668C271.859 324.543 271.625 324.449 271.364 324.387C271.104 324.324 270.818 324.293 270.505 324.293C269.381 324.293 268.522 324.658 267.928 325.386C267.335 326.115 267.038 327.156 267.038 328.51V334.851H265.039V322.825H267.038V324.699C267.434 323.97 267.965 323.429 268.631 323.075C269.297 322.721 270.11 322.544 271.068 322.544C271.213 322.544 271.364 322.549 271.52 322.56C271.677 322.57 271.859 322.596 272.067 322.638V324.668ZM283.499 325.137C283.999 324.241 284.593 323.585 285.28 323.169C285.967 322.752 286.779 322.544 287.716 322.544C288.966 322.544 289.929 322.981 290.606 323.856C291.282 324.73 291.621 325.98 291.621 327.604V334.851H289.622V327.667C289.622 326.501 289.419 325.642 289.013 325.09C288.607 324.538 287.987 324.262 287.154 324.262C286.134 324.262 285.327 324.6 284.733 325.277C284.14 325.954 283.843 326.875 283.843 328.041V334.851H281.844V327.667C281.844 326.501 281.641 325.642 281.235 325.09C280.829 324.538 280.199 324.262 279.345 324.262C278.346 324.262 277.549 324.6 276.956 325.277C276.362 325.954 276.065 326.875 276.065 328.041V334.851H274.066V322.825H276.065V324.699C276.503 323.95 277.039 323.403 277.674 323.059C278.309 322.716 279.053 322.544 279.907 322.544C280.782 322.544 281.526 322.763 282.141 323.2C282.755 323.637 283.208 324.283 283.499 325.137ZM299.055 318.827H300.867L295.275 336.881H293.464L299.055 318.827ZM312.924 322.825L308.582 328.666L313.174 334.851H310.831L307.333 330.134L303.834 334.851H301.491L306.177 328.573L301.897 322.825H304.24L307.426 327.104L310.612 322.825H312.924ZM320.952 335.975C320.389 337.412 319.843 338.344 319.312 338.771C318.781 339.198 318.067 339.412 317.172 339.412H315.61V337.787H316.766C317.307 337.787 317.729 337.657 318.031 337.397C318.333 337.136 318.661 336.527 319.015 335.569L319.39 334.664L314.517 322.825H316.61L320.358 332.227L324.138 322.825H326.23L320.952 335.975Z" fill="black" stroke="black" stroke-width="1.99911" stroke-linecap="square" stroke-linejoin="round"/>
<path d="M369.833 291.871H87.9629V361.839H369.833V291.871Z" stroke="black" stroke-width="1.99911" stroke-linecap="square" stroke-linejoin="round"/>
<path d="M136.534 318.827H138.345L132.754 336.881H130.942L136.534 318.827ZM149.778 325.137C150.278 324.241 150.871 323.585 151.558 323.169C152.245 322.752 153.058 322.544 153.995 322.544C155.244 322.544 156.207 322.981 156.884 323.856C157.561 324.73 157.899 325.98 157.899 327.604V334.851H155.9V327.667C155.9 326.501 155.697 325.642 155.291 325.09C154.885 324.538 154.265 324.262 153.432 324.262C152.412 324.262 151.605 324.6 151.012 325.277C150.418 325.954 150.121 326.875 150.121 328.041V334.851H148.122V327.667C148.122 326.501 147.919 325.642 147.513 325.09C147.107 324.538 146.477 324.262 145.623 324.262C144.624 324.262 143.827 324.6 143.234 325.277C142.64 325.954 142.344 326.875 142.344 328.041V334.851H140.344V322.825H142.344V324.699C142.781 323.95 143.317 323.403 143.952 323.059C144.587 322.716 145.332 322.544 146.186 322.544C147.06 322.544 147.805 322.763 148.419 323.2C149.033 323.637 149.486 324.283 149.778 325.137ZM166.833 335.975C166.27 337.412 165.724 338.344 165.193 338.771C164.662 339.198 163.948 339.412 163.053 339.412H161.491V337.787H162.647C163.188 337.787 163.61 337.657 163.912 337.397C164.214 337.136 164.542 336.527 164.896 335.569L165.271 334.664L160.398 322.825H162.491L166.239 332.227L170.019 322.825H172.112L166.833 335.975ZM183.95 338.506V340.036H172.518V338.506H183.95ZM192.759 324.668C192.55 324.543 192.316 324.449 192.056 324.387C191.795 324.324 191.509 324.293 191.197 324.293C190.072 324.293 189.213 324.658 188.62 325.386C188.026 326.115 187.73 327.156 187.73 328.51V334.851H185.731V322.825H187.73V324.699C188.125 323.97 188.656 323.429 189.323 323.075C189.989 322.721 190.801 322.544 191.759 322.544C191.905 322.544 192.056 322.549 192.212 322.56C192.368 322.57 192.55 322.596 192.759 322.638V324.668ZM199.506 324.199C198.444 324.199 197.606 324.616 196.991 325.449C196.377 326.282 196.07 327.417 196.07 328.854C196.07 330.29 196.372 331.42 196.976 332.243C197.579 333.065 198.423 333.477 199.506 333.477C200.547 333.477 201.375 333.065 201.989 332.243C202.603 331.42 202.91 330.29 202.91 328.854C202.91 327.417 202.603 326.282 201.989 325.449C201.375 324.616 200.547 324.199 199.506 324.199ZM199.506 322.544C201.213 322.544 202.556 323.101 203.535 324.215C204.514 325.329 205.003 326.875 205.003 328.854C205.003 330.811 204.514 332.352 203.535 333.477C202.556 334.601 201.213 335.163 199.506 335.163C197.777 335.163 196.424 334.601 195.445 333.477C194.466 332.352 193.977 330.811 193.977 328.854C193.977 326.875 194.466 325.329 195.445 324.215C196.424 323.101 197.777 322.544 199.506 322.544ZM216.904 328.854C216.904 327.396 216.602 326.256 215.998 325.433C215.394 324.611 214.572 324.199 213.531 324.199C212.489 324.199 211.672 324.611 211.079 325.433C210.485 326.256 210.188 327.396 210.188 328.854C210.188 330.311 210.485 331.451 211.079 332.274C211.672 333.097 212.489 333.508 213.531 333.508C214.572 333.508 215.394 333.097 215.998 332.274C216.602 331.451 216.904 330.311 216.904 328.854ZM210.188 324.637C210.584 323.929 211.099 323.403 211.735 323.059C212.37 322.716 213.135 322.544 214.03 322.544C215.488 322.544 216.67 323.122 217.576 324.278C218.482 325.433 218.934 326.959 218.934 328.854C218.934 330.749 218.482 332.274 217.576 333.43C216.67 334.585 215.488 335.163 214.03 335.163C213.135 335.163 212.37 334.991 211.735 334.648C211.099 334.304 210.584 333.768 210.188 333.039V334.851H208.189V318.14H210.188V324.637ZM226.868 324.199C225.806 324.199 224.968 324.616 224.354 325.449C223.74 326.282 223.432 327.417 223.432 328.854C223.432 330.29 223.734 331.42 224.338 332.243C224.942 333.065 225.786 333.477 226.868 333.477C227.91 333.477 228.737 333.065 229.352 332.243C229.966 331.42 230.273 330.29 230.273 328.854C230.273 327.417 229.966 326.282 229.352 325.449C228.737 324.616 227.91 324.199 226.868 324.199ZM226.868 322.544C228.576 322.544 229.919 323.101 230.898 324.215C231.877 325.329 232.366 326.875 232.366 328.854C232.366 330.811 231.877 332.352 230.898 333.477C229.919 334.601 228.576 335.163 226.868 335.163C225.14 335.163 223.786 334.601 222.808 333.477C221.829 332.352 221.34 330.811 221.34 328.854C221.34 326.875 221.829 325.329 222.808 324.215C223.786 323.101 225.14 322.544 226.868 322.544ZM237.583 319.42V322.825H241.643V324.356H237.583V330.884C237.583 331.863 237.718 332.493 237.989 332.774C238.259 333.055 238.801 333.195 239.613 333.195H241.643V334.851H239.613C238.093 334.851 237.041 334.565 236.458 333.992C235.875 333.419 235.583 332.383 235.583 330.884V324.356H234.146V322.825H235.583V319.42H237.583ZM247.765 318.827H249.577L243.986 336.881H242.174L247.765 318.827ZM257.105 328.791C255.522 328.791 254.424 328.979 253.809 329.353C253.195 329.728 252.888 330.353 252.888 331.228C252.888 331.915 253.117 332.467 253.575 332.883C254.033 333.3 254.658 333.508 255.45 333.508C256.553 333.508 257.433 333.117 258.089 332.336C258.745 331.556 259.073 330.53 259.073 329.26V328.791H257.105ZM261.041 327.979V334.851H259.073V333.039C258.636 333.768 258.079 334.304 257.402 334.648C256.725 334.991 255.897 335.163 254.918 335.163C253.69 335.163 252.711 334.82 251.982 334.132C251.253 333.445 250.889 332.519 250.889 331.353C250.889 329.999 251.342 328.979 252.248 328.291C253.154 327.604 254.512 327.261 256.324 327.261H259.073V327.073C259.073 326.157 258.776 325.449 258.183 324.949C257.589 324.449 256.751 324.199 255.668 324.199C254.981 324.199 254.309 324.283 253.653 324.449C252.997 324.616 252.368 324.866 251.764 325.199V323.387C252.492 323.096 253.201 322.882 253.888 322.747C254.575 322.612 255.231 322.544 255.856 322.544C257.605 322.544 258.906 322.992 259.76 323.887C260.614 324.783 261.041 326.146 261.041 327.979ZM272.067 324.668C271.859 324.543 271.625 324.449 271.364 324.387C271.104 324.324 270.818 324.293 270.505 324.293C269.381 324.293 268.522 324.658 267.928 325.386C267.335 326.115 267.038 327.156 267.038 328.51V334.851H265.039V322.825H267.038V324.699C267.434 323.97 267.965 323.429 268.631 323.075C269.297 322.721 270.11 322.544 271.068 322.544C271.213 322.544 271.364 322.549 271.52 322.56C271.677 322.57 271.859 322.596 272.067 322.638V324.668ZM283.499 325.137C283.999 324.241 284.593 323.585 285.28 323.169C285.967 322.752 286.779 322.544 287.716 322.544C288.966 322.544 289.929 322.981 290.606 323.856C291.282 324.73 291.621 325.98 291.621 327.604V334.851H289.622V327.667C289.622 326.501 289.419 325.642 289.013 325.09C288.607 324.538 287.987 324.262 287.154 324.262C286.134 324.262 285.327 324.6 284.733 325.277C284.14 325.954 283.843 326.875 283.843 328.041V334.851H281.844V327.667C281.844 326.501 281.641 325.642 281.235 325.09C280.829 324.538 280.199 324.262 279.345 324.262C278.346 324.262 277.549 324.6 276.956 325.277C276.362 325.954 276.065 326.875 276.065 328.041V334.851H274.066V322.825H276.065V324.699C276.503 323.95 277.039 323.403 277.674 323.059C278.309 322.716 279.053 322.544 279.907 322.544C280.782 322.544 281.526 322.763 282.141 323.2C282.755 323.637 283.208 324.283 283.499 325.137ZM299.055 318.827H300.867L295.275 336.881H293.464L299.055 318.827ZM312.924 322.825L308.582 328.666L313.174 334.851H310.831L307.333 330.134L303.834 334.851H301.491L306.177 328.573L301.897 322.825H304.24L307.426 327.104L310.612 322.825H312.924ZM320.952 335.975C320.389 337.412 319.843 338.344 319.312 338.771C318.781 339.198 318.067 339.412 317.172 339.412H315.61V337.787H316.766C317.307 337.787 317.729 337.657 318.031 337.397C318.333 337.136 318.661 336.527 319.015 335.569L319.39 334.664L314.517 322.825H316.61L320.358 332.227L324.138 322.825H326.23L320.952 335.975Z" fill="black" stroke="black" stroke-width="1.99911" stroke-linecap="square" stroke-linejoin="round"/>
<path d="M633.678 279.876C717.803 279.876 785.999 264.213 785.999 244.892C785.999 225.57 717.803 209.907 633.678 209.907C549.554 209.907 481.357 225.57 481.357 244.892C481.357 264.213 549.554 279.876 633.678 279.876Z" stroke="black" stroke-width="1.99911" stroke-linecap="square" stroke-linejoin="round"/>
<path d="M561.509 236.863H563.32L557.729 254.917H555.917L561.509 236.863ZM574.753 243.173C575.253 242.277 575.846 241.621 576.533 241.205C577.221 240.788 578.033 240.58 578.97 240.58C580.219 240.58 581.182 241.017 581.859 241.892C582.536 242.767 582.874 244.016 582.874 245.64V252.887H580.875V245.703C580.875 244.537 580.672 243.678 580.266 243.126C579.86 242.574 579.24 242.298 578.407 242.298C577.387 242.298 576.58 242.636 575.987 243.313C575.393 243.99 575.096 244.911 575.096 246.078V252.887H573.097V245.703C573.097 244.537 572.894 243.678 572.488 243.126C572.082 242.574 571.452 242.298 570.598 242.298C569.599 242.298 568.802 242.636 568.209 243.313C567.615 243.99 567.319 244.911 567.319 246.078V252.887H565.32V240.861H567.319V242.735C567.756 241.986 568.292 241.439 568.927 241.095C569.562 240.752 570.307 240.58 571.161 240.58C572.035 240.58 572.78 240.799 573.394 241.236C574.008 241.673 574.461 242.319 574.753 243.173ZM592.245 246.827C590.662 246.827 589.564 247.015 588.95 247.39C588.335 247.764 588.028 248.389 588.028 249.264C588.028 249.951 588.257 250.503 588.715 250.919C589.173 251.336 589.798 251.544 590.59 251.544C591.693 251.544 592.573 251.153 593.229 250.373C593.885 249.592 594.213 248.566 594.213 247.296V246.827H592.245ZM596.181 246.015V252.887H594.213V251.075C593.776 251.804 593.219 252.341 592.542 252.684C591.865 253.028 591.037 253.2 590.058 253.2C588.83 253.2 587.851 252.856 587.122 252.169C586.394 251.482 586.029 250.555 586.029 249.389C586.029 248.035 586.482 247.015 587.388 246.328C588.294 245.64 589.652 245.297 591.464 245.297H594.213V245.109C594.213 244.193 593.916 243.485 593.323 242.985C592.729 242.485 591.891 242.236 590.808 242.236C590.121 242.236 589.449 242.319 588.793 242.485C588.138 242.652 587.508 242.902 586.904 243.235V241.423C587.633 241.132 588.341 240.918 589.028 240.783C589.715 240.648 590.371 240.58 590.996 240.58C592.745 240.58 594.046 241.028 594.9 241.923C595.754 242.819 596.181 244.183 596.181 246.015ZM600.242 240.861H602.241V252.887H600.242V240.861ZM600.242 236.176H602.241V238.675H600.242V236.176ZM616.328 245.64V252.887H614.36V245.703C614.36 244.557 614.142 243.704 613.704 243.141C613.267 242.579 612.601 242.298 611.705 242.298C610.643 242.298 609.805 242.636 609.191 243.313C608.576 243.99 608.269 244.911 608.269 246.078V252.887H606.27V240.861H608.269V242.735C608.727 242.007 609.279 241.465 609.925 241.111C610.57 240.757 611.309 240.58 612.142 240.58C613.517 240.58 614.558 241.007 615.266 241.861C615.974 242.715 616.328 243.974 616.328 245.64ZM629.416 256.542V258.072H617.984V256.542H629.416ZM631.259 236.176H633.258V252.887H631.259V236.176ZM637.35 240.861H639.349V252.887H637.35V240.861ZM637.35 236.176H639.349V238.675H637.35V236.176ZM651.125 241.205V243.079C650.563 242.787 649.98 242.574 649.376 242.439C648.772 242.303 648.147 242.236 647.502 242.236C646.523 242.236 645.789 242.387 645.299 242.689C644.81 242.99 644.566 243.433 644.566 244.016C644.566 244.474 644.743 244.833 645.097 245.094C645.451 245.354 646.159 245.609 647.221 245.859L647.877 246.015C649.293 246.307 650.292 246.728 650.875 247.28C651.458 247.832 651.75 248.597 651.75 249.576C651.75 250.68 651.313 251.559 650.438 252.216C649.563 252.871 648.345 253.2 646.783 253.2C646.138 253.2 645.466 253.137 644.769 253.012C644.071 252.887 643.337 252.7 642.567 252.45V250.419C643.295 250.794 644.014 251.075 644.722 251.263C645.43 251.45 646.138 251.544 646.846 251.544C647.762 251.544 648.47 251.383 648.97 251.06C649.47 250.737 649.72 250.294 649.72 249.732C649.72 249.191 649.542 248.774 649.189 248.483C648.835 248.191 648.043 247.921 646.815 247.671L646.127 247.483C644.899 247.233 644.014 246.843 643.472 246.312C642.931 245.781 642.66 245.047 642.66 244.11C642.66 242.985 643.061 242.116 643.863 241.502C644.664 240.887 645.804 240.58 647.283 240.58C648.012 240.58 648.699 240.632 649.345 240.736C649.99 240.84 650.584 240.997 651.125 241.205ZM656.841 237.456V240.861H660.902V242.392H656.841V248.92C656.841 249.899 656.977 250.529 657.247 250.81C657.518 251.091 658.06 251.232 658.872 251.232H660.902V252.887H658.872C657.352 252.887 656.3 252.601 655.717 252.028C655.134 251.456 654.842 250.419 654.842 248.92V242.392H653.405V240.861H654.842V237.456H656.841ZM673.803 246.39V247.358H664.713C664.796 248.712 665.202 249.743 665.931 250.451C666.66 251.159 667.68 251.513 668.992 251.513C669.763 251.513 670.502 251.419 671.21 251.232C671.918 251.044 672.626 250.773 673.334 250.419V252.262C672.626 252.575 671.897 252.809 671.147 252.965C670.398 253.121 669.648 253.2 668.898 253.2C666.962 253.2 665.437 252.642 664.322 251.528C663.208 250.414 662.651 248.899 662.651 246.983C662.651 245.026 663.182 243.469 664.244 242.314C665.306 241.158 666.743 240.58 668.555 240.58C670.158 240.58 671.434 241.101 672.381 242.142C673.329 243.183 673.803 244.599 673.803 246.39ZM671.803 245.796C671.803 244.714 671.507 243.849 670.913 243.204C670.32 242.558 669.534 242.236 668.555 242.236C667.451 242.236 666.571 242.548 665.915 243.173C665.259 243.797 664.879 244.672 664.775 245.796H671.803ZM687.015 245.64V252.887H685.048V245.703C685.048 244.557 684.829 243.704 684.391 243.141C683.954 242.579 683.288 242.298 682.392 242.298C681.33 242.298 680.492 242.636 679.878 243.313C679.264 243.99 678.957 244.911 678.957 246.078V252.887H676.957V240.861H678.957V242.735C679.415 242.007 679.966 241.465 680.612 241.111C681.257 240.757 681.997 240.58 682.83 240.58C684.204 240.58 685.245 241.007 685.953 241.861C686.661 242.715 687.015 243.974 687.015 245.64ZM701.259 246.39V247.358H692.169C692.253 248.712 692.659 249.743 693.387 250.451C694.116 251.159 695.137 251.513 696.449 251.513C697.219 251.513 697.958 251.419 698.667 251.232C699.374 251.044 700.083 250.773 700.791 250.419V252.262C700.083 252.575 699.354 252.809 698.604 252.965C697.854 253.121 697.105 253.2 696.355 253.2C694.418 253.2 692.893 252.642 691.779 251.528C690.665 250.414 690.108 248.899 690.108 246.983C690.108 245.026 690.639 243.469 691.701 242.314C692.763 241.158 694.2 240.58 696.011 240.58C697.615 240.58 698.89 241.101 699.838 242.142C700.785 243.183 701.259 244.599 701.259 246.39ZM699.26 245.796C699.26 244.714 698.963 243.849 698.37 243.204C697.776 242.558 696.99 242.236 696.011 242.236C694.908 242.236 694.028 242.548 693.372 243.173C692.716 243.797 692.336 244.672 692.232 245.796H699.26ZM711.442 242.704C711.234 242.579 710.999 242.485 710.739 242.423C710.479 242.361 710.193 242.329 709.88 242.329C708.756 242.329 707.897 242.694 707.303 243.423C706.71 244.151 706.413 245.193 706.413 246.546V252.887H704.414V240.861H706.413V242.735C706.809 242.007 707.34 241.465 708.006 241.111C708.672 240.757 709.485 240.58 710.442 240.58C710.588 240.58 710.739 240.585 710.895 240.596C711.052 240.606 711.234 240.632 711.442 240.674V242.704Z" fill="black" stroke="black" stroke-width="1.99911" stroke-linecap="square" stroke-linejoin="round"/>
<path d="M703.483 112.055C826.357 112.055 925.966 96.3917 925.966 77.0704C925.966 57.749 826.357 42.0859 703.483 42.0859C580.609 42.0859 481 57.749 481 77.0704C481 96.3917 580.609 112.055 703.483 112.055Z" stroke="black" stroke-width="1.99911" stroke-linecap="square" stroke-linejoin="round"/>
<path d="M588.098 69.0412H589.909L584.318 87.0956H582.506L588.098 69.0412ZM598.937 74.8823C598.728 74.7574 598.494 74.6637 598.234 74.6012C597.973 74.5388 597.687 74.5075 597.375 74.5075C596.25 74.5075 595.391 74.8719 594.798 75.6008C594.204 76.3296 593.908 77.3708 593.908 78.7244V85.0653H591.908V73.0394H593.908V74.9136C594.303 74.1847 594.834 73.6433 595.501 73.2893C596.167 72.9353 596.979 72.7583 597.937 72.7583C598.083 72.7583 598.234 72.7635 598.39 72.7739C598.546 72.7843 598.728 72.8103 598.937 72.852V74.8823ZM605.684 74.4138C604.622 74.4138 603.783 74.8303 603.169 75.6632C602.555 76.4962 602.248 77.6311 602.248 79.068C602.248 80.5048 602.549 81.6345 603.153 82.4571C603.757 83.2797 604.601 83.6909 605.684 83.6909C606.725 83.6909 607.552 83.2797 608.167 82.4571C608.781 81.6345 609.088 80.5048 609.088 79.068C609.088 77.6311 608.781 76.4962 608.167 75.6632C607.552 74.8303 606.725 74.4138 605.684 74.4138ZM605.684 72.7583C607.391 72.7583 608.734 73.3153 609.713 74.4294C610.692 75.5435 611.181 77.0897 611.181 79.068C611.181 81.0254 610.692 82.5664 609.713 83.6909C608.734 84.8154 607.391 85.3778 605.684 85.3778C603.955 85.3778 602.602 84.8154 601.623 83.6909C600.644 82.5664 600.155 81.0254 600.155 79.068C600.155 77.0897 600.644 75.5435 601.623 74.4294C602.602 73.3153 603.955 72.7583 605.684 72.7583ZM622.114 73.383V75.2572C621.552 74.9656 620.968 74.7522 620.364 74.6168C619.761 74.4815 619.136 74.4138 618.49 74.4138C617.512 74.4138 616.777 74.5648 616.288 74.8667C615.799 75.1687 615.554 75.6112 615.554 76.1943C615.554 76.6524 615.731 77.0116 616.085 77.2719C616.439 77.5322 617.147 77.7873 618.209 78.0372L618.865 78.1934C620.281 78.4849 621.281 78.9066 621.864 79.4584C622.447 80.0103 622.738 80.7756 622.738 81.7543C622.738 82.8579 622.301 83.7377 621.427 84.3938C620.552 85.0497 619.334 85.3778 617.772 85.3778C617.126 85.3778 616.455 85.3152 615.757 85.1902C615.06 85.0653 614.326 84.878 613.555 84.6281V82.5977C614.284 82.9725 615.002 83.2537 615.71 83.441C616.418 83.6285 617.126 83.7221 617.834 83.7221C618.751 83.7221 619.459 83.5608 619.958 83.2379C620.458 82.9152 620.708 82.4727 620.708 81.9105C620.708 81.369 620.531 80.9526 620.177 80.661C619.823 80.3695 619.032 80.0988 617.803 79.8489L617.116 79.6615C615.887 79.4116 615.002 79.0211 614.461 78.4901C613.919 77.9591 613.649 77.2251 613.649 76.288C613.649 75.1635 614.05 74.2941 614.851 73.6798C615.653 73.0654 616.793 72.7583 618.272 72.7583C619 72.7583 619.688 72.8103 620.333 72.9145C620.979 73.0186 621.572 73.1748 622.114 73.383ZM634.514 79.068C634.514 77.6103 634.213 76.4702 633.609 75.6476C633.005 74.8251 632.182 74.4138 631.141 74.4138C630.1 74.4138 629.282 74.8251 628.689 75.6476C628.095 76.4702 627.799 77.6103 627.799 79.068C627.799 80.5257 628.095 81.6658 628.689 82.4883C629.282 83.3109 630.1 83.7221 631.141 83.7221C632.182 83.7221 633.005 83.3109 633.609 82.4883C634.213 81.6658 634.514 80.5257 634.514 79.068ZM627.799 74.8511C628.194 74.1431 628.71 73.6173 629.345 73.2737C629.98 72.9301 630.745 72.7583 631.641 72.7583C633.098 72.7583 634.28 73.3361 635.186 74.4919C636.092 75.6476 636.545 77.173 636.545 79.068C636.545 80.963 636.092 82.4883 635.186 83.6441C634.28 84.7998 633.098 85.3778 631.641 85.3778C630.745 85.3778 629.98 85.2058 629.345 84.8622C628.71 84.5187 628.194 83.9824 627.799 83.2537V85.0653H625.8V68.354H627.799V74.8511ZM646.759 74.8823C646.551 74.7574 646.317 74.6637 646.056 74.6012C645.796 74.5388 645.509 74.5075 645.197 74.5075C644.073 74.5075 643.214 74.8719 642.62 75.6008C642.027 76.3296 641.73 77.3708 641.73 78.7244V85.0653H639.731V73.0394H641.73V74.9136C642.126 74.1847 642.657 73.6433 643.323 73.2893C643.989 72.9353 644.802 72.7583 645.759 72.7583C645.905 72.7583 646.056 72.7635 646.212 72.7739C646.369 72.7843 646.551 72.8103 646.759 72.852V74.8823ZM648.821 73.0394H650.82V85.0653H648.821V73.0394ZM648.821 68.354H650.82V70.8529H648.821V68.354ZM662.846 74.8511V68.354H664.814V85.0653H662.846V83.2537C662.429 83.9824 661.903 84.5187 661.268 84.8622C660.633 85.2058 659.868 85.3778 658.972 85.3778C657.536 85.3778 656.359 84.7998 655.443 83.6441C654.526 82.4883 654.068 80.963 654.068 79.068C654.068 77.173 654.526 75.6476 655.443 74.4919C656.359 73.3361 657.536 72.7583 658.972 72.7583C659.868 72.7583 660.633 72.9301 661.268 73.2737C661.903 73.6173 662.429 74.1431 662.846 74.8511ZM656.099 79.068C656.099 80.5257 656.4 81.6658 657.004 82.4883C657.608 83.3109 658.431 83.7221 659.472 83.7221C660.513 83.7221 661.336 83.3109 661.94 82.4883C662.544 81.6658 662.846 80.5257 662.846 79.068C662.846 77.6103 662.544 76.4702 661.94 75.6476C661.336 74.8251 660.513 74.4138 659.472 74.4138C658.431 74.4138 657.608 74.8251 657.004 75.6476C656.4 76.4702 656.099 77.6103 656.099 79.068ZM676.777 78.9118C676.777 77.4749 676.48 76.3661 675.887 75.5851C675.293 74.8043 674.465 74.4138 673.403 74.4138C672.341 74.4138 671.514 74.8043 670.92 75.5851C670.327 76.3661 670.03 77.4749 670.03 78.9118C670.03 80.3278 670.327 81.4315 670.92 82.2228C671.514 83.0141 672.341 83.4098 673.403 83.4098C674.465 83.4098 675.293 83.0141 675.887 82.2228C676.48 81.4315 676.777 80.3278 676.777 78.9118ZM678.745 83.566C678.745 85.6277 678.292 87.153 677.386 88.1421C676.48 89.1313 675.09 89.6259 673.216 89.6259C672.508 89.6259 671.847 89.5737 671.232 89.4695C670.618 89.3654 670.019 89.2093 669.436 89.0012V87.0956C670.019 87.4081 670.592 87.6372 671.154 87.7829C671.717 87.9286 672.3 88.0016 672.904 88.0016C674.195 88.0016 675.163 87.6631 675.809 86.9862C676.454 86.3096 676.777 85.2944 676.777 83.9408V82.9412C676.36 83.6493 675.835 84.1803 675.199 84.5343C674.564 84.8884 673.799 85.0653 672.904 85.0653C671.425 85.0653 670.238 84.5032 669.343 83.3787C668.447 82.2541 667.999 80.7651 667.999 78.9118C667.999 77.0584 668.447 75.5695 669.343 74.445C670.238 73.3205 671.425 72.7583 672.904 72.7583C673.799 72.7583 674.564 72.9301 675.199 73.2737C675.835 73.6173 676.36 74.1431 676.777 74.8511V73.0394H678.745V83.566ZM693.082 78.5682V79.5365H683.992C684.076 80.8901 684.482 81.9209 685.211 82.6289C685.939 83.3369 686.96 83.6909 688.272 83.6909C689.042 83.6909 689.782 83.5972 690.489 83.4098C691.198 83.2223 691.906 82.9517 692.614 82.5977V84.4406C691.906 84.753 691.177 84.9871 690.427 85.1435C689.677 85.2996 688.928 85.3778 688.178 85.3778C686.241 85.3778 684.716 84.8206 683.602 83.7065C682.488 82.5924 681.931 81.0775 681.931 79.1617C681.931 77.2042 682.462 75.6476 683.524 74.4919C684.586 73.3361 686.023 72.7583 687.834 72.7583C689.438 72.7583 690.713 73.2789 691.661 74.3201C692.608 75.3613 693.082 76.7773 693.082 78.5682ZM691.083 77.9747C691.083 76.8919 690.786 76.0277 690.193 75.3821C689.599 74.7366 688.813 74.4138 687.834 74.4138C686.731 74.4138 685.851 74.7262 685.195 75.3509C684.539 75.9756 684.159 76.8502 684.055 77.9747H691.083ZM705.452 88.7199V90.2506H694.019V88.7199H705.452ZM706.17 73.0394H708.138L710.606 82.4102L713.073 73.0394H715.385L717.852 82.4102L720.32 73.0394H722.288L719.164 85.0653H716.822L714.229 75.1947L711.636 85.0653H709.294L706.17 73.0394ZM735.563 78.5682V79.5365H726.473C726.557 80.8901 726.963 81.9209 727.692 82.6289C728.421 83.3369 729.441 83.6909 730.753 83.6909C731.523 83.6909 732.263 83.5972 732.971 83.4098C733.679 83.2223 734.387 82.9517 735.095 82.5977V84.4406C734.387 84.753 733.658 84.9871 732.908 85.1435C732.159 85.2996 731.409 85.3778 730.659 85.3778C728.722 85.3778 727.197 84.8206 726.083 83.7065C724.969 82.5924 724.412 81.0775 724.412 79.1617C724.412 77.2042 724.943 75.6476 726.005 74.4919C727.067 73.3361 728.504 72.7583 730.316 72.7583C731.919 72.7583 733.194 73.2789 734.142 74.3201C735.089 75.3613 735.563 76.7773 735.563 78.5682ZM733.564 77.9747C733.564 76.8919 733.267 76.0277 732.674 75.3821C732.08 74.7366 731.294 74.4138 730.316 74.4138C729.212 74.4138 728.332 74.7262 727.676 75.3509C727.02 75.9756 726.64 76.8502 726.536 77.9747H733.564ZM747.433 79.068C747.433 77.6103 747.131 76.4702 746.527 75.6476C745.923 74.8251 745.101 74.4138 744.059 74.4138C743.018 74.4138 742.201 74.8251 741.607 75.6476C741.014 76.4702 740.717 77.6103 740.717 79.068C740.717 80.5257 741.014 81.6658 741.607 82.4883C742.201 83.3109 743.018 83.7221 744.059 83.7221C745.101 83.7221 745.923 83.3109 746.527 82.4883C747.131 81.6658 747.433 80.5257 747.433 79.068ZM740.717 74.8511C741.113 74.1431 741.628 73.6173 742.263 73.2737C742.899 72.9301 743.664 72.7583 744.559 72.7583C746.017 72.7583 747.199 73.3361 748.104 74.4919C749.01 75.6476 749.463 77.173 749.463 79.068C749.463 80.963 749.01 82.4883 748.104 83.6441C747.199 84.7998 746.017 85.3778 744.559 85.3778C743.664 85.3778 742.899 85.2058 742.263 84.8622C741.628 84.5187 741.113 83.9824 740.717 83.2537V85.0653H738.718V68.354H740.717V74.8511ZM760.396 73.383V75.2572C759.834 74.9656 759.251 74.7522 758.647 74.6168C758.043 74.4815 757.418 74.4138 756.773 74.4138C755.794 74.4138 755.06 74.5648 754.57 74.8667C754.081 75.1687 753.836 75.6112 753.836 76.1943C753.836 76.6524 754.013 77.0116 754.367 77.2719C754.721 77.5322 755.429 77.7873 756.492 78.0372L757.147 78.1934C758.563 78.4849 759.563 78.9066 760.146 79.4584C760.729 80.0103 761.021 80.7756 761.021 81.7543C761.021 82.8579 760.583 83.7377 759.709 84.3938C758.834 85.0497 757.616 85.3778 756.054 85.3778C755.409 85.3778 754.737 85.3152 754.039 85.1902C753.342 85.0653 752.608 84.878 751.837 84.6281V82.5977C752.566 82.9725 753.285 83.2537 753.993 83.441C754.7 83.6285 755.409 83.7221 756.117 83.7221C757.033 83.7221 757.741 83.5608 758.241 83.2379C758.74 82.9152 758.99 82.4727 758.99 81.9105C758.99 81.369 758.813 80.9526 758.459 80.661C758.105 80.3695 757.314 80.0988 756.085 79.8489L755.398 79.6615C754.17 79.4116 753.285 79.0211 752.743 78.4901C752.202 77.9591 751.931 77.2251 751.931 76.288C751.931 75.1635 752.332 74.2941 753.134 73.6798C753.935 73.0654 755.075 72.7583 756.554 72.7583C757.283 72.7583 757.97 72.8103 758.616 72.9145C759.261 73.0186 759.854 73.1748 760.396 73.383ZM768.83 74.4138C767.768 74.4138 766.929 74.8303 766.315 75.6632C765.701 76.4962 765.394 77.6311 765.394 79.068C765.394 80.5048 765.696 81.6345 766.3 82.4571C766.903 83.2797 767.747 83.6909 768.83 83.6909C769.871 83.6909 770.699 83.2797 771.313 82.4571C771.927 81.6345 772.234 80.5048 772.234 79.068C772.234 77.6311 771.927 76.4962 771.313 75.6632C770.699 74.8303 769.871 74.4138 768.83 74.4138ZM768.83 72.7583C770.537 72.7583 771.88 73.3153 772.859 74.4294C773.838 75.5435 774.327 77.0897 774.327 79.068C774.327 81.0254 773.838 82.5664 772.859 83.6909C771.88 84.8154 770.537 85.3778 768.83 85.3778C767.101 85.3778 765.748 84.8154 764.769 83.6909C763.79 82.5664 763.301 81.0254 763.301 79.068C763.301 77.0897 763.79 75.5435 764.769 74.4294C765.748 73.3153 767.101 72.7583 768.83 72.7583ZM786.228 73.5079V75.3509C785.686 75.0385 785.134 74.8043 784.572 74.6481C784.011 74.4919 783.437 74.4138 782.855 74.4138C781.584 74.4138 780.595 74.8199 779.887 75.632C779.179 76.4441 778.825 77.5895 778.825 79.068C778.825 80.5257 779.179 81.6606 779.887 82.4727C780.595 83.2849 781.584 83.6909 782.855 83.6909C783.437 83.6909 784.011 83.6179 784.572 83.4722C785.134 83.3265 785.686 83.0974 786.228 82.7851V84.5967C785.686 84.8674 785.12 85.0653 784.526 85.1902C783.933 85.3152 783.303 85.3778 782.635 85.3778C780.824 85.3778 779.387 84.8102 778.325 83.6753C777.263 82.5404 776.732 81.0046 776.732 79.068C776.732 77.1105 777.269 75.5695 778.341 74.445C779.413 73.3205 780.887 72.7583 782.761 72.7583C783.385 72.7583 783.985 72.8208 784.556 72.9457C785.13 73.0706 785.686 73.2581 786.228 73.5079ZM789.602 68.354H791.601V78.2246L797.473 73.0394H800.004L793.63 78.6619L800.285 85.0653H797.693L791.601 79.1929V85.0653H789.602V68.354ZM812.686 78.5682V79.5365H803.596C803.678 80.8901 804.086 81.9209 804.813 82.6289C805.543 83.3369 806.563 83.6909 807.874 83.6909C808.646 83.6909 809.385 83.5972 810.093 83.4098C810.801 83.2223 811.508 82.9517 812.216 82.5977V84.4406C811.508 84.753 810.781 84.9871 810.031 85.1435C809.281 85.2996 808.532 85.3778 807.782 85.3778C805.845 85.3778 804.32 84.8206 803.204 83.7065C802.091 82.5924 801.535 81.0775 801.535 79.1617C801.535 77.2042 802.065 75.6476 803.126 74.4919C804.19 73.3361 805.625 72.7583 807.438 72.7583C809.041 72.7583 810.317 73.2789 811.265 74.3201C812.212 75.3613 812.686 76.7773 812.686 78.5682ZM810.687 77.9747C810.687 76.8919 810.389 76.0277 809.795 75.3821C809.201 74.7366 808.416 74.4138 807.438 74.4138C806.335 74.4138 805.453 74.7262 804.797 75.3509C804.142 75.9756 803.762 76.8502 803.658 77.9747H810.687ZM817.87 69.6347V73.0394H821.932V74.57H817.87V81.0983C817.87 82.0771 818.006 82.707 818.277 82.9881C818.547 83.2693 819.089 83.4098 819.901 83.4098H821.932V85.0653H819.901C818.381 85.0653 817.33 84.779 816.746 84.2063C816.162 83.6337 815.87 82.5977 815.87 81.0983V74.57H814.435V73.0394H815.87V69.6347H817.87Z" fill="black" stroke="black" stroke-width="1.99911" stroke-linecap="square" stroke-linejoin="round"/>
<path d="M403.201 197.033C435.047 203.69 467.852 210.567 498.339 216.956" stroke="black" stroke-width="1.99911" stroke-linecap="square" stroke-linejoin="round"/>
<path fill-rule="evenodd" clip-rule="evenodd" d="M498.338 216.956L496.897 223.834L517.99 221.074L499.78 210.077L498.338 216.956Z" fill="black" stroke="black" stroke-width="1.99911" stroke-linecap="square" stroke-linejoin="round"/>
<path d="M371.075 298.188C411.817 289.856 456.217 280.774 496.659 272.507" stroke="black" stroke-width="1.99911" stroke-linecap="square" stroke-linejoin="round"/>
<path fill-rule="evenodd" clip-rule="evenodd" d="M496.66 272.507L498.099 279.546L516.771 268.395L495.22 265.468L496.66 272.507Z" fill="black" stroke="black" stroke-width="1.99911" stroke-linecap="square" stroke-linejoin="round"/>
</svg>
