<svg width="1097" height="467" viewBox="0 0 1097 467" fill="none" xmlns="http://www.w3.org/2000/svg">
<rect width="1097" height="467" fill="white"/>
<path d="M541.797 37H86V430.825H541.797V37Z" stroke="black" stroke-width="1.99911" stroke-linecap="square" stroke-linejoin="round"/>
<path d="M262.875 51.9606H264.687L259.095 70.015H257.284L262.875 51.9606ZM276.119 58.2703C276.619 57.3749 277.212 56.7189 277.9 56.3024C278.587 55.886 279.399 55.6777 280.336 55.6777C281.585 55.6777 282.548 56.115 283.225 56.9896C283.902 57.8642 284.24 59.1137 284.24 60.738V67.9847H282.241V60.8004C282.241 59.6343 282.038 58.7753 281.632 58.2235C281.226 57.6716 280.607 57.3957 279.774 57.3957C278.753 57.3957 277.946 57.7341 277.353 58.4109C276.759 59.0877 276.463 60.0091 276.463 61.1753V67.9847H274.464V60.8004C274.464 59.6343 274.261 58.7753 273.854 58.2235C273.448 57.6716 272.818 57.3957 271.965 57.3957C270.965 57.3957 270.169 57.7341 269.575 58.4109C268.982 59.0877 268.685 60.0091 268.685 61.1753V67.9847H266.686V55.9589H268.685V57.833C269.122 57.0834 269.658 56.5367 270.294 56.1931C270.929 55.8495 271.673 55.6777 272.527 55.6777C273.402 55.6777 274.146 55.8964 274.76 56.3337C275.375 56.771 275.828 57.4165 276.119 58.2703ZM293.174 69.1092C292.612 70.5462 292.065 71.478 291.534 71.9048C291.003 72.3318 290.29 72.5453 289.394 72.5453H287.833V70.921H288.988C289.53 70.921 289.951 70.7907 290.253 70.5304C290.555 70.2701 290.883 69.661 291.237 68.7032L291.612 67.7974L286.739 55.9589H288.832L292.581 65.3609L296.36 55.9589H298.453L293.174 69.1092ZM310.291 71.6393V73.17H298.859V71.6393H310.291ZM319.1 57.8018C318.892 57.6768 318.657 57.5831 318.397 57.5207C318.137 57.4582 317.851 57.4269 317.538 57.4269C316.414 57.4269 315.555 57.7914 314.961 58.5202C314.368 59.249 314.071 60.2902 314.071 61.6438V67.9847H312.072V55.9589H314.071V57.833C314.467 57.1042 314.998 56.5627 315.664 56.2087C316.33 55.8547 317.142 55.6777 318.1 55.6777C318.246 55.6777 318.397 55.6829 318.553 55.6933C318.71 55.7037 318.892 55.7298 319.1 55.7714V57.8018ZM325.847 57.3332C324.785 57.3332 323.947 57.7497 323.332 58.5827C322.718 59.4156 322.411 60.5505 322.411 61.9874C322.411 63.4243 322.713 64.554 323.317 65.3765C323.921 66.1991 324.764 66.6103 325.847 66.6103C326.888 66.6103 327.716 66.1991 328.33 65.3765C328.945 64.554 329.252 63.4243 329.252 61.9874C329.252 60.5505 328.945 59.4156 328.33 58.5827C327.716 57.7497 326.888 57.3332 325.847 57.3332ZM325.847 55.6777C327.554 55.6777 328.898 56.2348 329.876 57.3489C330.855 58.4629 331.345 60.0091 331.345 61.9874C331.345 63.9449 330.855 65.4859 329.876 66.6103C328.898 67.7348 327.554 68.2972 325.847 68.2972C324.119 68.2972 322.765 67.7348 321.786 66.6103C320.807 65.4859 320.318 63.9449 320.318 61.9874C320.318 60.0091 320.807 58.4629 321.786 57.3489C322.765 56.2348 324.119 55.6777 325.847 55.6777ZM343.245 61.9874C343.245 60.5297 342.944 59.3896 342.34 58.5671C341.736 57.7445 340.913 57.3332 339.872 57.3332C338.831 57.3332 338.013 57.7445 337.42 58.5671C336.826 59.3896 336.53 60.5297 336.53 61.9874C336.53 63.4451 336.826 64.5852 337.42 65.4078C338.013 66.2303 338.831 66.6415 339.872 66.6415C340.913 66.6415 341.736 66.2303 342.34 65.4078C342.944 64.5852 343.245 63.4451 343.245 61.9874ZM336.53 57.7705C336.925 57.0625 337.441 56.5367 338.076 56.1931C338.711 55.8495 339.476 55.6777 340.372 55.6777C341.829 55.6777 343.011 56.2556 343.917 57.4113C344.823 58.5671 345.276 60.0924 345.276 61.9874C345.276 63.8824 344.823 65.4078 343.917 66.5636C343.011 67.7193 341.829 68.2972 340.372 68.2972C339.476 68.2972 338.711 68.1253 338.076 67.7816C337.441 67.4382 336.925 66.9018 336.53 66.1731V67.9847H334.53V51.2734H336.53V57.7705ZM353.21 57.3332C352.148 57.3332 351.31 57.7497 350.695 58.5827C350.081 59.4156 349.774 60.5505 349.774 61.9874C349.774 63.4243 350.076 64.554 350.68 65.3765C351.283 66.1991 352.127 66.6103 353.21 66.6103C354.251 66.6103 355.079 66.1991 355.693 65.3765C356.307 64.554 356.614 63.4243 356.614 61.9874C356.614 60.5505 356.307 59.4156 355.693 58.5827C355.079 57.7497 354.251 57.3332 353.21 57.3332ZM353.21 55.6777C354.917 55.6777 356.26 56.2348 357.239 57.3489C358.218 58.4629 358.707 60.0091 358.707 61.9874C358.707 63.9449 358.218 65.4859 357.239 66.6103C356.26 67.7348 354.917 68.2972 353.21 68.2972C351.481 68.2972 350.128 67.7348 349.149 66.6103C348.17 65.4859 347.681 63.9449 347.681 61.9874C347.681 60.0091 348.17 58.4629 349.149 57.3489C350.128 56.2348 351.481 55.6777 353.21 55.6777ZM363.924 52.5541V55.9589H367.984V57.4894H363.924V64.0178C363.924 64.9965 364.059 65.6264 364.33 65.9075C364.601 66.1887 365.142 66.3293 365.954 66.3293H367.984V67.9847H365.954C364.434 67.9847 363.382 67.6985 362.799 67.1257C362.216 66.5532 361.925 65.5171 361.925 64.0178V57.4894H360.488V55.9589H361.925V52.5541H363.924Z" fill="black" stroke="black" stroke-width="1.99911" stroke-linecap="square" stroke-linejoin="round"/>
<path d="M525.804 98.9727H101.993V248.906H525.804V98.9727Z" stroke="black" stroke-width="1.99911" stroke-linecap="square" stroke-linejoin="round"/>
<path d="M199.762 113.934H201.573L195.982 131.988H194.17L199.762 113.934ZM213.006 120.243C213.506 119.348 214.099 118.692 214.786 118.276C215.474 117.859 216.286 117.651 217.223 117.651C218.472 117.651 219.435 118.088 220.112 118.963C220.789 119.837 221.127 121.087 221.127 122.711V129.958H219.128V122.774C219.128 121.607 218.925 120.748 218.519 120.197C218.113 119.645 217.493 119.369 216.66 119.369C215.64 119.369 214.833 119.707 214.24 120.384C213.646 121.061 213.349 121.982 213.349 123.148V129.958H211.35V122.774C211.35 121.607 211.147 120.748 210.741 120.197C210.335 119.645 209.705 119.369 208.851 119.369C207.852 119.369 207.055 119.707 206.462 120.384C205.868 121.061 205.572 121.982 205.572 123.148V129.958H203.572V117.932H205.572V119.806C206.009 119.056 206.545 118.51 207.18 118.166C207.815 117.823 208.56 117.651 209.414 117.651C210.288 117.651 211.033 117.87 211.647 118.307C212.261 118.744 212.714 119.39 213.006 120.243ZM230.061 131.082C229.498 132.519 228.952 133.451 228.421 133.878C227.89 134.305 227.177 134.518 226.281 134.518H224.719V132.894H225.875C226.416 132.894 226.838 132.764 227.14 132.504C227.442 132.243 227.77 131.634 228.124 130.676L228.499 129.771L223.626 117.932H225.719L229.467 127.334L233.247 117.932H235.34L230.061 131.082ZM247.178 133.612V135.143H235.746V133.612H247.178ZM255.987 119.775C255.778 119.65 255.544 119.556 255.284 119.494C255.024 119.431 254.737 119.4 254.425 119.4C253.3 119.4 252.441 119.764 251.848 120.493C251.254 121.222 250.958 122.263 250.958 123.617V129.958H248.959V117.932H250.958V119.806C251.353 119.077 251.884 118.536 252.551 118.182C253.217 117.828 254.029 117.651 254.987 117.651C255.133 117.651 255.284 117.656 255.44 117.666C255.596 117.677 255.778 117.703 255.987 117.745V119.775ZM262.734 119.306C261.672 119.306 260.834 119.723 260.219 120.556C259.605 121.389 259.298 122.524 259.298 123.961C259.298 125.397 259.6 126.527 260.204 127.35C260.807 128.172 261.651 128.583 262.734 128.583C263.775 128.583 264.603 128.172 265.217 127.35C265.831 126.527 266.138 125.397 266.138 123.961C266.138 122.524 265.831 121.389 265.217 120.556C264.603 119.723 263.775 119.306 262.734 119.306ZM262.734 117.651C264.441 117.651 265.784 118.208 266.763 119.322C267.742 120.436 268.231 121.982 268.231 123.961C268.231 125.918 267.742 127.459 266.763 128.583C265.784 129.708 264.441 130.27 262.734 130.27C261.005 130.27 259.652 129.708 258.673 128.583C257.694 127.459 257.205 125.918 257.205 123.961C257.205 121.982 257.694 120.436 258.673 119.322C259.652 118.208 261.005 117.651 262.734 117.651ZM280.132 123.961C280.132 122.503 279.83 121.363 279.226 120.54C278.622 119.718 277.8 119.306 276.759 119.306C275.718 119.306 274.9 119.718 274.307 120.54C273.713 121.363 273.416 122.503 273.416 123.961C273.416 125.418 273.713 126.558 274.307 127.381C274.9 128.203 275.718 128.615 276.759 128.615C277.8 128.615 278.622 128.203 279.226 127.381C279.83 126.558 280.132 125.418 280.132 123.961ZM273.416 119.744C273.812 119.036 274.328 118.51 274.963 118.166C275.598 117.823 276.363 117.651 277.258 117.651C278.716 117.651 279.898 118.229 280.804 119.384C281.71 120.54 282.162 122.066 282.162 123.961C282.162 125.856 281.71 127.381 280.804 128.537C279.898 129.692 278.716 130.27 277.258 130.27C276.363 130.27 275.598 130.098 274.963 129.755C274.328 129.411 273.812 128.875 273.416 128.146V129.958H271.417V113.247H273.416V119.744ZM290.097 119.306C289.034 119.306 288.196 119.723 287.582 120.556C286.968 121.389 286.66 122.524 286.66 123.961C286.66 125.397 286.962 126.527 287.566 127.35C288.17 128.172 289.014 128.583 290.097 128.583C291.138 128.583 291.965 128.172 292.58 127.35C293.194 126.527 293.501 125.397 293.501 123.961C293.501 122.524 293.194 121.389 292.58 120.556C291.965 119.723 291.138 119.306 290.097 119.306ZM290.097 117.651C291.804 117.651 293.147 118.208 294.126 119.322C295.105 120.436 295.594 121.982 295.594 123.961C295.594 125.918 295.105 127.459 294.126 128.583C293.147 129.708 291.804 130.27 290.097 130.27C288.368 130.27 287.014 129.708 286.036 128.583C285.057 127.459 284.568 125.918 284.568 123.961C284.568 121.982 285.057 120.436 286.036 119.322C287.014 118.208 288.368 117.651 290.097 117.651ZM300.811 114.527V117.932H304.871V119.463H300.811V125.991C300.811 126.97 300.946 127.6 301.217 127.881C301.487 128.162 302.029 128.302 302.841 128.302H304.871V129.958H302.841C301.321 129.958 300.269 129.672 299.686 129.099C299.103 128.526 298.811 127.49 298.811 125.991V119.463H297.374V117.932H298.811V114.527H300.811ZM310.993 113.934H312.805L307.214 131.988H305.402L310.993 113.934ZM324.238 120.243C324.737 119.348 325.331 118.692 326.018 118.276C326.705 117.859 327.517 117.651 328.454 117.651C329.704 117.651 330.667 118.088 331.344 118.963C332.02 119.837 332.359 121.087 332.359 122.711V129.958H330.36V122.774C330.36 121.607 330.157 120.748 329.751 120.197C329.345 119.645 328.725 119.369 327.892 119.369C326.872 119.369 326.065 119.707 325.471 120.384C324.878 121.061 324.581 121.982 324.581 123.148V129.958H322.582V122.774C322.582 121.607 322.379 120.748 321.973 120.197C321.567 119.645 320.937 119.369 320.083 119.369C319.084 119.369 318.287 119.707 317.694 120.384C317.1 121.061 316.803 121.982 316.803 123.148V129.958H314.804V117.932H316.803V119.806C317.241 119.056 317.777 118.51 318.412 118.166C319.047 117.823 319.791 117.651 320.645 117.651C321.52 117.651 322.264 117.87 322.879 118.307C323.493 118.744 323.946 119.39 324.238 120.243ZM340.949 119.306C339.887 119.306 339.049 119.723 338.434 120.556C337.82 121.389 337.513 122.524 337.513 123.961C337.513 125.397 337.815 126.527 338.419 127.35C339.023 128.172 339.866 128.583 340.949 128.583C341.99 128.583 342.818 128.172 343.432 127.35C344.046 126.527 344.354 125.397 344.354 123.961C344.354 122.524 344.046 121.389 343.432 120.556C342.818 119.723 341.99 119.306 340.949 119.306ZM340.949 117.651C342.656 117.651 344 118.208 344.978 119.322C345.957 120.436 346.446 121.982 346.446 123.961C346.446 125.918 345.957 127.459 344.978 128.583C344 129.708 342.656 130.27 340.949 130.27C339.22 130.27 337.867 129.708 336.888 128.583C335.909 127.459 335.42 125.918 335.42 123.961C335.42 121.982 335.909 120.436 336.888 119.322C337.867 118.208 339.22 117.651 340.949 117.651ZM348.289 117.932H350.382L354.13 128.021L357.91 117.932H360.003L355.474 129.958H352.787L348.289 117.932ZM372.997 123.461V124.429H363.907C363.991 125.783 364.397 126.813 365.126 127.521C365.854 128.229 366.875 128.583 368.187 128.583C368.957 128.583 369.696 128.49 370.405 128.302C371.112 128.115 371.821 127.844 372.529 127.49V129.333C371.821 129.646 371.092 129.88 370.342 130.036C369.592 130.192 368.843 130.27 368.093 130.27C366.156 130.27 364.631 129.713 363.517 128.599C362.403 127.485 361.846 125.97 361.846 124.054C361.846 122.097 362.377 120.54 363.439 119.384C364.501 118.229 365.938 117.651 367.749 117.651C369.353 117.651 370.628 118.171 371.576 119.213C372.523 120.254 372.997 121.67 372.997 123.461ZM370.998 122.867C370.998 121.784 370.701 120.92 370.108 120.275C369.514 119.629 368.728 119.306 367.749 119.306C366.646 119.306 365.766 119.619 365.11 120.243C364.454 120.868 364.074 121.743 363.97 122.867H370.998ZM385.585 120.243C386.085 119.348 386.679 118.692 387.366 118.276C388.053 117.859 388.865 117.651 389.802 117.651C391.052 117.651 392.015 118.088 392.691 118.963C393.368 119.837 393.707 121.087 393.707 122.711V129.958H391.707V122.774C391.707 121.607 391.504 120.748 391.098 120.197C390.692 119.645 390.073 119.369 389.24 119.369C388.219 119.369 387.413 119.707 386.819 120.384C386.226 121.061 385.929 121.982 385.929 123.148V129.958H383.93V122.774C383.93 121.607 383.727 120.748 383.321 120.197C382.915 119.645 382.285 119.369 381.431 119.369C380.431 119.369 379.635 119.707 379.041 120.384C378.448 121.061 378.151 121.982 378.151 123.148V129.958H376.152V117.932H378.151V119.806C378.588 119.056 379.124 118.51 379.76 118.166C380.395 117.823 381.139 117.651 381.993 117.651C382.868 117.651 383.612 117.87 384.226 118.307C384.841 118.744 385.294 119.39 385.585 120.243ZM407.919 123.461V124.429H398.829C398.913 125.783 399.319 126.813 400.047 127.521C400.776 128.229 401.796 128.583 403.109 128.583C403.879 128.583 404.619 128.49 405.326 128.302C406.034 128.115 406.742 127.844 407.451 127.49V129.333C406.742 129.646 406.014 129.88 405.264 130.036C404.515 130.192 403.765 130.27 403.015 130.27C401.078 130.27 399.553 129.713 398.439 128.599C397.324 127.485 396.768 125.97 396.768 124.054C396.768 122.097 397.298 120.54 398.362 119.384C399.423 118.229 400.86 117.651 402.672 117.651C404.275 117.651 405.55 118.171 406.498 119.213C407.445 120.254 407.919 121.67 407.919 123.461ZM405.92 122.867C405.92 121.784 405.622 120.92 405.031 120.275C404.437 119.629 403.649 119.306 402.672 119.306C401.568 119.306 400.688 119.619 400.033 120.243C399.375 120.868 398.995 121.743 398.891 122.867H405.92ZM421.131 122.711V129.958H419.164V122.774C419.164 121.628 418.946 120.774 418.509 120.212C418.071 119.65 417.405 119.369 416.509 119.369C415.448 119.369 414.608 119.707 413.995 120.384C413.381 121.061 413.073 121.982 413.073 123.148V129.958H411.074V117.932H413.073V119.806C413.531 119.077 414.083 118.536 414.728 118.182C415.374 117.828 416.114 117.651 416.947 117.651C418.321 117.651 419.362 118.078 420.07 118.932C420.778 119.785 421.131 121.045 421.131 122.711ZM427.035 114.527V117.932H431.097V119.463H427.035V125.991C427.035 126.97 427.171 127.6 427.443 127.881C427.712 128.162 428.254 128.302 429.066 128.302H431.097V129.958H429.066C427.547 129.958 426.495 129.672 425.911 129.099C425.327 128.526 425.036 127.49 425.036 125.991V119.463H423.6V117.932H425.036V114.527H427.035Z" fill="black" stroke="black" stroke-width="1.99911" stroke-linecap="square" stroke-linejoin="round"/>
<path d="M508.81 161.944H118.987V231.913H508.81V161.944Z" stroke="black" stroke-width="1.99911" stroke-linecap="square" stroke-linejoin="round"/>
<path d="M178.303 188.9H180.114L174.523 206.954H172.711L178.303 188.9ZM191.547 195.21C192.047 194.314 192.64 193.658 193.327 193.242C194.015 192.825 194.827 192.617 195.764 192.617C197.013 192.617 197.976 193.054 198.653 193.929C199.33 194.804 199.668 196.053 199.668 197.677V204.924H197.669V197.74C197.669 196.574 197.466 195.715 197.06 195.163C196.654 194.611 196.034 194.335 195.201 194.335C194.181 194.335 193.374 194.674 192.781 195.35C192.187 196.027 191.89 196.949 191.89 198.115V204.924H189.891V197.74C189.891 196.574 189.688 195.715 189.282 195.163C188.876 194.611 188.246 194.335 187.392 194.335C186.393 194.335 185.596 194.674 185.003 195.35C184.409 196.027 184.113 196.949 184.113 198.115V204.924H182.113V192.898H184.113V194.772C184.55 194.023 185.086 193.476 185.721 193.133C186.356 192.789 187.101 192.617 187.955 192.617C188.829 192.617 189.574 192.836 190.188 193.273C190.802 193.71 191.255 194.356 191.547 195.21ZM208.602 206.049C208.039 207.486 207.493 208.417 206.962 208.844C206.431 209.271 205.718 209.485 204.822 209.485H203.26V207.86H204.416C204.957 207.86 205.379 207.73 205.681 207.47C205.983 207.21 206.311 206.6 206.665 205.643L207.04 204.737L202.167 192.898H204.26L208.008 202.3L211.788 192.898H213.881L208.602 206.049ZM225.719 208.579V210.109H214.287V208.579H225.719ZM234.528 194.741C234.319 194.616 234.085 194.523 233.825 194.46C233.565 194.398 233.278 194.366 232.966 194.366C231.841 194.366 230.982 194.731 230.389 195.46C229.795 196.188 229.499 197.23 229.499 198.583V204.924H227.5V192.898H229.499V194.772C229.894 194.044 230.425 193.502 231.092 193.148C231.758 192.794 232.57 192.617 233.528 192.617C233.674 192.617 233.825 192.622 233.981 192.633C234.137 192.643 234.319 192.669 234.528 192.711V194.741ZM241.275 194.273C240.213 194.273 239.375 194.689 238.76 195.522C238.146 196.355 237.839 197.49 237.839 198.927C237.839 200.364 238.141 201.493 238.745 202.316C239.348 203.139 240.192 203.55 241.275 203.55C242.316 203.55 243.144 203.139 243.758 202.316C244.372 201.493 244.679 200.364 244.679 198.927C244.679 197.49 244.372 196.355 243.758 195.522C243.144 194.689 242.316 194.273 241.275 194.273ZM241.275 192.617C242.982 192.617 244.325 193.174 245.304 194.288C246.283 195.402 246.772 196.949 246.772 198.927C246.772 200.884 246.283 202.425 245.304 203.55C244.325 204.674 242.982 205.237 241.275 205.237C239.546 205.237 238.193 204.674 237.214 203.55C236.235 202.425 235.746 200.884 235.746 198.927C235.746 196.949 236.235 195.402 237.214 194.288C238.193 193.174 239.546 192.617 241.275 192.617ZM258.673 198.927C258.673 197.469 258.371 196.329 257.767 195.507C257.163 194.684 256.341 194.273 255.3 194.273C254.259 194.273 253.441 194.684 252.848 195.507C252.254 196.329 251.957 197.469 251.957 198.927C251.957 200.385 252.254 201.525 252.848 202.347C253.441 203.17 254.259 203.581 255.3 203.581C256.341 203.581 257.163 203.17 257.767 202.347C258.371 201.525 258.673 200.385 258.673 198.927ZM251.957 194.71C252.353 194.002 252.869 193.476 253.504 193.133C254.139 192.789 254.904 192.617 255.799 192.617C257.257 192.617 258.439 193.195 259.345 194.351C260.251 195.507 260.703 197.032 260.703 198.927C260.703 200.822 260.251 202.347 259.345 203.503C258.439 204.659 257.257 205.237 255.799 205.237C254.904 205.237 254.139 205.065 253.504 204.721C252.869 204.378 252.353 203.841 251.957 203.113V204.924H249.958V188.213H251.957V194.71ZM268.638 194.273C267.575 194.273 266.737 194.689 266.123 195.522C265.509 196.355 265.201 197.49 265.201 198.927C265.201 200.364 265.504 201.493 266.107 202.316C266.711 203.139 267.555 203.55 268.638 203.55C269.679 203.55 270.506 203.139 271.121 202.316C271.735 201.493 272.042 200.364 272.042 198.927C272.042 197.49 271.735 196.355 271.121 195.522C270.506 194.689 269.679 194.273 268.638 194.273ZM268.638 192.617C270.345 192.617 271.688 193.174 272.667 194.288C273.646 195.402 274.135 196.949 274.135 198.927C274.135 200.884 273.646 202.425 272.667 203.55C271.688 204.674 270.345 205.237 268.638 205.237C266.909 205.237 265.555 204.674 264.577 203.55C263.598 202.425 263.109 200.884 263.109 198.927C263.109 196.949 263.598 195.402 264.577 194.288C265.555 193.174 266.909 192.617 268.638 192.617ZM279.352 189.494V192.898H283.412V194.429H279.352V200.957C279.352 201.936 279.487 202.566 279.758 202.847C280.028 203.128 280.57 203.269 281.382 203.269H283.412V204.924H281.382C279.862 204.924 278.81 204.638 278.227 204.065C277.644 203.493 277.352 202.457 277.352 200.957V194.429H275.915V192.898H277.352V189.494H279.352ZM289.534 188.9H291.346L285.755 206.954H283.943L289.534 188.9ZM302.779 195.21C303.278 194.314 303.872 193.658 304.559 193.242C305.246 192.825 306.058 192.617 306.995 192.617C308.245 192.617 309.208 193.054 309.885 193.929C310.561 194.804 310.9 196.053 310.9 197.677V204.924H308.901V197.74C308.901 196.574 308.698 195.715 308.292 195.163C307.886 194.611 307.266 194.335 306.433 194.335C305.413 194.335 304.606 194.674 304.012 195.35C303.419 196.027 303.122 196.949 303.122 198.115V204.924H301.123V197.74C301.123 196.574 300.92 195.715 300.514 195.163C300.108 194.611 299.478 194.335 298.624 194.335C297.625 194.335 296.828 194.674 296.235 195.35C295.641 196.027 295.344 196.949 295.344 198.115V204.924H293.345V192.898H295.344V194.772C295.782 194.023 296.318 193.476 296.953 193.133C297.588 192.789 298.332 192.617 299.186 192.617C300.061 192.617 300.805 192.836 301.42 193.273C302.034 193.71 302.487 194.356 302.779 195.21ZM319.49 194.273C318.428 194.273 317.59 194.689 316.975 195.522C316.361 196.355 316.054 197.49 316.054 198.927C316.054 200.364 316.356 201.493 316.96 202.316C317.564 203.139 318.407 203.55 319.49 203.55C320.531 203.55 321.359 203.139 321.973 202.316C322.588 201.493 322.895 200.364 322.895 198.927C322.895 197.49 322.588 196.355 321.973 195.522C321.359 194.689 320.531 194.273 319.49 194.273ZM319.49 192.617C321.197 192.617 322.541 193.174 323.519 194.288C324.498 195.402 324.987 196.949 324.987 198.927C324.987 200.884 324.498 202.425 323.519 203.55C322.541 204.674 321.197 205.237 319.49 205.237C317.761 205.237 316.408 204.674 315.429 203.55C314.45 202.425 313.961 200.884 313.961 198.927C313.961 196.949 314.45 195.402 315.429 194.288C316.408 193.174 317.761 192.617 319.49 192.617ZM326.83 192.898H328.923L332.671 202.988L336.451 192.898H338.544L334.015 204.924H331.328L326.83 192.898ZM351.538 198.427V199.395H342.448C342.532 200.749 342.938 201.78 343.667 202.488C344.395 203.196 345.416 203.55 346.728 203.55C347.498 203.55 348.237 203.456 348.946 203.269C349.653 203.081 350.362 202.811 351.07 202.457V204.299C350.362 204.612 349.633 204.846 348.883 205.002C348.133 205.158 347.384 205.237 346.634 205.237C344.697 205.237 343.172 204.68 342.058 203.565C340.944 202.451 340.387 200.936 340.387 199.021C340.387 197.063 340.918 195.507 341.98 194.351C343.042 193.195 344.479 192.617 346.29 192.617C347.894 192.617 349.169 193.138 350.117 194.179C351.064 195.22 351.538 196.636 351.538 198.427ZM349.539 197.834C349.539 196.751 349.242 195.887 348.649 195.241C348.055 194.595 347.269 194.273 346.29 194.273C345.187 194.273 344.307 194.585 343.651 195.21C342.995 195.834 342.615 196.709 342.511 197.834H349.539ZM364.126 195.21C364.626 194.314 365.22 193.658 365.907 193.242C366.594 192.825 367.406 192.617 368.343 192.617C369.593 192.617 370.556 193.054 371.232 193.929C371.909 194.804 372.248 196.053 372.248 197.677V204.924H370.248V197.74C370.248 196.574 370.045 195.715 369.639 195.163C369.233 194.611 368.614 194.335 367.781 194.335C366.76 194.335 365.954 194.674 365.36 195.35C364.767 196.027 364.47 196.949 364.47 198.115V204.924H362.471V197.74C362.471 196.574 362.268 195.715 361.862 195.163C361.456 194.611 360.826 194.335 359.972 194.335C358.972 194.335 358.176 194.674 357.582 195.35C356.989 196.027 356.692 196.949 356.692 198.115V204.924H354.693V192.898H356.692V194.772C357.129 194.023 357.665 193.476 358.301 193.133C358.936 192.789 359.68 192.617 360.534 192.617C361.409 192.617 362.153 192.836 362.767 193.273C363.382 193.71 363.835 194.356 364.126 195.21ZM386.46 198.427V199.395H377.37C377.454 200.749 377.86 201.78 378.588 202.488C379.317 203.196 380.337 203.55 381.65 203.55C382.42 203.55 383.16 203.456 383.867 203.269C384.575 203.081 385.283 202.811 385.992 202.457V204.299C385.283 204.612 384.555 204.846 383.805 205.002C383.056 205.158 382.306 205.237 381.556 205.237C379.619 205.237 378.094 204.68 376.98 203.565C375.865 202.451 375.309 200.936 375.309 199.021C375.309 197.063 375.839 195.507 376.903 194.351C377.964 193.195 379.401 192.617 381.213 192.617C382.816 192.617 384.091 193.138 385.039 194.179C385.986 195.22 386.46 196.636 386.46 198.427ZM384.461 197.834C384.461 196.751 384.163 195.887 383.572 195.241C382.978 194.595 382.19 194.273 381.213 194.273C380.109 194.273 379.229 194.585 378.574 195.21C377.916 195.834 377.536 196.709 377.432 197.834H384.461ZM399.672 197.677V204.924H397.705V197.74C397.705 196.595 397.487 195.741 397.05 195.179C396.612 194.616 395.946 194.335 395.05 194.335C393.989 194.335 393.149 194.674 392.536 195.35C391.922 196.027 391.614 196.949 391.614 198.115V204.924H389.615V192.898H391.614V194.772C392.072 194.044 392.624 193.502 393.269 193.148C393.915 192.794 394.655 192.617 395.488 192.617C396.862 192.617 397.903 193.044 398.611 193.898C399.319 194.752 399.672 196.011 399.672 197.677ZM405.576 189.494V192.898H409.638V194.429H405.576V200.957C405.576 201.936 405.712 202.566 405.984 202.847C406.253 203.128 406.795 203.269 407.607 203.269H409.638V204.924H407.607C406.088 204.924 405.036 204.638 404.452 204.065C403.869 203.493 403.577 202.457 403.577 200.957V194.429H402.141V192.898H403.577V189.494H405.576ZM415.759 188.9H417.57L411.981 206.954H410.168L415.759 188.9ZM429.629 192.898L425.287 198.739L429.879 204.924H427.536L424.038 200.208L420.539 204.924H418.196L422.882 198.646L418.602 192.898H420.945L424.131 197.178L427.316 192.898H429.629ZM437.655 206.049C437.094 207.486 436.548 208.417 436.016 208.844C435.484 209.271 434.773 209.485 433.877 209.485H432.314V207.86H433.471C434.011 207.86 434.433 207.73 434.735 207.47C435.037 207.21 435.364 206.6 435.72 205.643L436.094 204.737L431.222 192.898H433.313L437.062 202.3L440.842 192.898H442.935L437.655 206.049ZM444.778 192.898H454.148V194.71L446.715 203.331H454.148V204.924H444.496V203.113L451.931 194.491H444.778V192.898Z" fill="black" stroke="black" stroke-width="1.99911" stroke-linecap="square" stroke-linejoin="round"/>
<path d="M508.81 161.944H118.987V231.913H508.81V161.944Z" stroke="black" stroke-width="1.99911" stroke-linecap="square" stroke-linejoin="round"/>
<path d="M178.303 188.9H180.114L174.523 206.954H172.711L178.303 188.9ZM191.547 195.21C192.047 194.314 192.64 193.658 193.327 193.242C194.015 192.825 194.827 192.617 195.764 192.617C197.013 192.617 197.976 193.054 198.653 193.929C199.33 194.804 199.668 196.053 199.668 197.677V204.924H197.669V197.74C197.669 196.574 197.466 195.715 197.06 195.163C196.654 194.611 196.034 194.335 195.201 194.335C194.181 194.335 193.374 194.674 192.781 195.35C192.187 196.027 191.89 196.949 191.89 198.115V204.924H189.891V197.74C189.891 196.574 189.688 195.715 189.282 195.163C188.876 194.611 188.246 194.335 187.392 194.335C186.393 194.335 185.596 194.674 185.003 195.35C184.409 196.027 184.113 196.949 184.113 198.115V204.924H182.113V192.898H184.113V194.772C184.55 194.023 185.086 193.476 185.721 193.133C186.356 192.789 187.101 192.617 187.955 192.617C188.829 192.617 189.574 192.836 190.188 193.273C190.802 193.71 191.255 194.356 191.547 195.21ZM208.602 206.049C208.039 207.486 207.493 208.417 206.962 208.844C206.431 209.271 205.718 209.485 204.822 209.485H203.26V207.86H204.416C204.957 207.86 205.379 207.73 205.681 207.47C205.983 207.21 206.311 206.6 206.665 205.643L207.04 204.737L202.167 192.898H204.26L208.008 202.3L211.788 192.898H213.881L208.602 206.049ZM225.719 208.579V210.109H214.287V208.579H225.719ZM234.528 194.741C234.319 194.616 234.085 194.523 233.825 194.46C233.565 194.398 233.278 194.366 232.966 194.366C231.841 194.366 230.982 194.731 230.389 195.46C229.795 196.188 229.499 197.23 229.499 198.583V204.924H227.5V192.898H229.499V194.772C229.894 194.044 230.425 193.502 231.092 193.148C231.758 192.794 232.57 192.617 233.528 192.617C233.674 192.617 233.825 192.622 233.981 192.633C234.137 192.643 234.319 192.669 234.528 192.711V194.741ZM241.275 194.273C240.213 194.273 239.375 194.689 238.76 195.522C238.146 196.355 237.839 197.49 237.839 198.927C237.839 200.364 238.141 201.493 238.745 202.316C239.348 203.139 240.192 203.55 241.275 203.55C242.316 203.55 243.144 203.139 243.758 202.316C244.372 201.493 244.679 200.364 244.679 198.927C244.679 197.49 244.372 196.355 243.758 195.522C243.144 194.689 242.316 194.273 241.275 194.273ZM241.275 192.617C242.982 192.617 244.325 193.174 245.304 194.288C246.283 195.402 246.772 196.949 246.772 198.927C246.772 200.884 246.283 202.425 245.304 203.55C244.325 204.674 242.982 205.237 241.275 205.237C239.546 205.237 238.193 204.674 237.214 203.55C236.235 202.425 235.746 200.884 235.746 198.927C235.746 196.949 236.235 195.402 237.214 194.288C238.193 193.174 239.546 192.617 241.275 192.617ZM258.673 198.927C258.673 197.469 258.371 196.329 257.767 195.507C257.163 194.684 256.341 194.273 255.3 194.273C254.259 194.273 253.441 194.684 252.848 195.507C252.254 196.329 251.957 197.469 251.957 198.927C251.957 200.385 252.254 201.525 252.848 202.347C253.441 203.17 254.259 203.581 255.3 203.581C256.341 203.581 257.163 203.17 257.767 202.347C258.371 201.525 258.673 200.385 258.673 198.927ZM251.957 194.71C252.353 194.002 252.869 193.476 253.504 193.133C254.139 192.789 254.904 192.617 255.799 192.617C257.257 192.617 258.439 193.195 259.345 194.351C260.251 195.507 260.703 197.032 260.703 198.927C260.703 200.822 260.251 202.347 259.345 203.503C258.439 204.659 257.257 205.237 255.799 205.237C254.904 205.237 254.139 205.065 253.504 204.721C252.869 204.378 252.353 203.841 251.957 203.113V204.924H249.958V188.213H251.957V194.71ZM268.638 194.273C267.575 194.273 266.737 194.689 266.123 195.522C265.509 196.355 265.201 197.49 265.201 198.927C265.201 200.364 265.504 201.493 266.107 202.316C266.711 203.139 267.555 203.55 268.638 203.55C269.679 203.55 270.506 203.139 271.121 202.316C271.735 201.493 272.042 200.364 272.042 198.927C272.042 197.49 271.735 196.355 271.121 195.522C270.506 194.689 269.679 194.273 268.638 194.273ZM268.638 192.617C270.345 192.617 271.688 193.174 272.667 194.288C273.646 195.402 274.135 196.949 274.135 198.927C274.135 200.884 273.646 202.425 272.667 203.55C271.688 204.674 270.345 205.237 268.638 205.237C266.909 205.237 265.555 204.674 264.577 203.55C263.598 202.425 263.109 200.884 263.109 198.927C263.109 196.949 263.598 195.402 264.577 194.288C265.555 193.174 266.909 192.617 268.638 192.617ZM279.352 189.494V192.898H283.412V194.429H279.352V200.957C279.352 201.936 279.487 202.566 279.758 202.847C280.028 203.128 280.57 203.269 281.382 203.269H283.412V204.924H281.382C279.862 204.924 278.81 204.638 278.227 204.065C277.644 203.493 277.352 202.457 277.352 200.957V194.429H275.915V192.898H277.352V189.494H279.352ZM289.534 188.9H291.346L285.755 206.954H283.943L289.534 188.9ZM302.779 195.21C303.278 194.314 303.872 193.658 304.559 193.242C305.246 192.825 306.058 192.617 306.995 192.617C308.245 192.617 309.208 193.054 309.885 193.929C310.561 194.804 310.9 196.053 310.9 197.677V204.924H308.901V197.74C308.901 196.574 308.698 195.715 308.292 195.163C307.886 194.611 307.266 194.335 306.433 194.335C305.413 194.335 304.606 194.674 304.012 195.35C303.419 196.027 303.122 196.949 303.122 198.115V204.924H301.123V197.74C301.123 196.574 300.92 195.715 300.514 195.163C300.108 194.611 299.478 194.335 298.624 194.335C297.625 194.335 296.828 194.674 296.235 195.35C295.641 196.027 295.344 196.949 295.344 198.115V204.924H293.345V192.898H295.344V194.772C295.782 194.023 296.318 193.476 296.953 193.133C297.588 192.789 298.332 192.617 299.186 192.617C300.061 192.617 300.805 192.836 301.42 193.273C302.034 193.71 302.487 194.356 302.779 195.21ZM319.49 194.273C318.428 194.273 317.59 194.689 316.975 195.522C316.361 196.355 316.054 197.49 316.054 198.927C316.054 200.364 316.356 201.493 316.96 202.316C317.564 203.139 318.407 203.55 319.49 203.55C320.531 203.55 321.359 203.139 321.973 202.316C322.588 201.493 322.895 200.364 322.895 198.927C322.895 197.49 322.588 196.355 321.973 195.522C321.359 194.689 320.531 194.273 319.49 194.273ZM319.49 192.617C321.197 192.617 322.541 193.174 323.519 194.288C324.498 195.402 324.987 196.949 324.987 198.927C324.987 200.884 324.498 202.425 323.519 203.55C322.541 204.674 321.197 205.237 319.49 205.237C317.761 205.237 316.408 204.674 315.429 203.55C314.45 202.425 313.961 200.884 313.961 198.927C313.961 196.949 314.45 195.402 315.429 194.288C316.408 193.174 317.761 192.617 319.49 192.617ZM326.83 192.898H328.923L332.671 202.988L336.451 192.898H338.544L334.015 204.924H331.328L326.83 192.898ZM351.538 198.427V199.395H342.448C342.532 200.749 342.938 201.78 343.667 202.488C344.395 203.196 345.416 203.55 346.728 203.55C347.498 203.55 348.237 203.456 348.946 203.269C349.653 203.081 350.362 202.811 351.07 202.457V204.299C350.362 204.612 349.633 204.846 348.883 205.002C348.133 205.158 347.384 205.237 346.634 205.237C344.697 205.237 343.172 204.68 342.058 203.565C340.944 202.451 340.387 200.936 340.387 199.021C340.387 197.063 340.918 195.507 341.98 194.351C343.042 193.195 344.479 192.617 346.29 192.617C347.894 192.617 349.169 193.138 350.117 194.179C351.064 195.22 351.538 196.636 351.538 198.427ZM349.539 197.834C349.539 196.751 349.242 195.887 348.649 195.241C348.055 194.595 347.269 194.273 346.29 194.273C345.187 194.273 344.307 194.585 343.651 195.21C342.995 195.834 342.615 196.709 342.511 197.834H349.539ZM364.126 195.21C364.626 194.314 365.22 193.658 365.907 193.242C366.594 192.825 367.406 192.617 368.343 192.617C369.593 192.617 370.556 193.054 371.232 193.929C371.909 194.804 372.248 196.053 372.248 197.677V204.924H370.248V197.74C370.248 196.574 370.045 195.715 369.639 195.163C369.233 194.611 368.614 194.335 367.781 194.335C366.76 194.335 365.954 194.674 365.36 195.35C364.767 196.027 364.47 196.949 364.47 198.115V204.924H362.471V197.74C362.471 196.574 362.268 195.715 361.862 195.163C361.456 194.611 360.826 194.335 359.972 194.335C358.972 194.335 358.176 194.674 357.582 195.35C356.989 196.027 356.692 196.949 356.692 198.115V204.924H354.693V192.898H356.692V194.772C357.129 194.023 357.665 193.476 358.301 193.133C358.936 192.789 359.68 192.617 360.534 192.617C361.409 192.617 362.153 192.836 362.767 193.273C363.382 193.71 363.835 194.356 364.126 195.21ZM386.46 198.427V199.395H377.37C377.454 200.749 377.86 201.78 378.588 202.488C379.317 203.196 380.337 203.55 381.65 203.55C382.42 203.55 383.16 203.456 383.867 203.269C384.575 203.081 385.283 202.811 385.992 202.457V204.299C385.283 204.612 384.555 204.846 383.805 205.002C383.056 205.158 382.306 205.237 381.556 205.237C379.619 205.237 378.094 204.68 376.98 203.565C375.865 202.451 375.309 200.936 375.309 199.021C375.309 197.063 375.839 195.507 376.903 194.351C377.964 193.195 379.401 192.617 381.213 192.617C382.816 192.617 384.091 193.138 385.039 194.179C385.986 195.22 386.46 196.636 386.46 198.427ZM384.461 197.834C384.461 196.751 384.163 195.887 383.572 195.241C382.978 194.595 382.19 194.273 381.213 194.273C380.109 194.273 379.229 194.585 378.574 195.21C377.916 195.834 377.536 196.709 377.432 197.834H384.461ZM399.672 197.677V204.924H397.705V197.74C397.705 196.595 397.487 195.741 397.05 195.179C396.612 194.616 395.946 194.335 395.05 194.335C393.989 194.335 393.149 194.674 392.536 195.35C391.922 196.027 391.614 196.949 391.614 198.115V204.924H389.615V192.898H391.614V194.772C392.072 194.044 392.624 193.502 393.269 193.148C393.915 192.794 394.655 192.617 395.488 192.617C396.862 192.617 397.903 193.044 398.611 193.898C399.319 194.752 399.672 196.011 399.672 197.677ZM405.576 189.494V192.898H409.638V194.429H405.576V200.957C405.576 201.936 405.712 202.566 405.984 202.847C406.253 203.128 406.795 203.269 407.607 203.269H409.638V204.924H407.607C406.088 204.924 405.036 204.638 404.452 204.065C403.869 203.493 403.577 202.457 403.577 200.957V194.429H402.141V192.898H403.577V189.494H405.576ZM415.759 188.9H417.57L411.981 206.954H410.168L415.759 188.9ZM429.629 192.898L425.287 198.739L429.879 204.924H427.536L424.038 200.208L420.539 204.924H418.196L422.882 198.646L418.602 192.898H420.945L424.131 197.178L427.316 192.898H429.629ZM437.655 206.049C437.094 207.486 436.548 208.417 436.016 208.844C435.484 209.271 434.773 209.485 433.877 209.485H432.314V207.86H433.471C434.011 207.86 434.433 207.73 434.735 207.47C435.037 207.21 435.364 206.6 435.72 205.643L436.094 204.737L431.222 192.898H433.313L437.062 202.3L440.842 192.898H442.935L437.655 206.049ZM444.778 192.898H454.148V194.71L446.715 203.331H454.148V204.924H444.496V203.113L451.931 194.491H444.778V192.898Z" fill="black" stroke="black" stroke-width="1.99911" stroke-linecap="square" stroke-linejoin="round"/>
<path d="M471.828 264.899H155.969V414.832H471.828V264.899Z" stroke="black" stroke-width="1.99911" stroke-linecap="square" stroke-linejoin="round"/>
<path d="M238.23 279.86H240.042L234.45 297.914H232.639L238.23 279.86ZM251.474 286.17C251.974 285.274 252.567 284.618 253.254 284.202C253.942 283.785 254.754 283.577 255.691 283.577C256.94 283.577 257.903 284.014 258.58 284.889C259.257 285.764 259.595 287.013 259.595 288.637V295.884H257.596V288.7C257.596 287.534 257.393 286.675 256.987 286.123C256.581 285.571 255.962 285.295 255.129 285.295C254.108 285.295 253.301 285.634 252.708 286.31C252.114 286.987 251.818 287.909 251.818 289.075V295.884H249.819V288.7C249.819 287.534 249.615 286.675 249.209 286.123C248.803 285.571 248.173 285.295 247.32 285.295C246.32 285.295 245.524 285.634 244.93 286.31C244.337 286.987 244.04 287.909 244.04 289.075V295.884H242.041V283.858H244.04V285.732C244.477 284.983 245.013 284.436 245.649 284.093C246.284 283.749 247.028 283.577 247.882 283.577C248.756 283.577 249.501 283.796 250.115 284.233C250.73 284.67 251.182 285.316 251.474 286.17ZM268.529 297.009C267.967 298.446 267.42 299.377 266.889 299.804C266.358 300.231 265.645 300.445 264.749 300.445H263.188V298.82H264.343C264.885 298.82 265.306 298.69 265.608 298.43C265.91 298.17 266.238 297.56 266.592 296.603L266.967 295.697L262.094 283.858H264.187L267.936 293.26L271.715 283.858H273.808L268.529 297.009ZM285.646 299.539V301.069H274.214V299.539H285.646ZM294.455 285.701C294.247 285.576 294.012 285.483 293.752 285.42C293.492 285.358 293.206 285.326 292.893 285.326C291.769 285.326 290.91 285.691 290.316 286.42C289.723 287.148 289.426 288.19 289.426 289.543V295.884H287.427V283.858H289.426V285.732C289.822 285.004 290.353 284.462 291.019 284.108C291.685 283.754 292.497 283.577 293.455 283.577C293.601 283.577 293.752 283.582 293.908 283.593C294.065 283.603 294.247 283.629 294.455 283.671V285.701ZM301.202 285.233C300.14 285.233 299.302 285.649 298.687 286.482C298.073 287.315 297.766 288.45 297.766 289.887C297.766 291.324 298.068 292.453 298.672 293.276C299.276 294.099 300.119 294.51 301.202 294.51C302.243 294.51 303.071 294.099 303.685 293.276C304.3 292.453 304.607 291.324 304.607 289.887C304.607 288.45 304.3 287.315 303.685 286.482C303.071 285.649 302.243 285.233 301.202 285.233ZM301.202 283.577C302.909 283.577 304.253 284.134 305.231 285.248C306.21 286.362 306.7 287.909 306.7 289.887C306.7 291.844 306.21 293.385 305.231 294.51C304.253 295.634 302.909 296.197 301.202 296.197C299.474 296.197 298.12 295.634 297.141 294.51C296.162 293.385 295.673 291.844 295.673 289.887C295.673 287.909 296.162 286.362 297.141 285.248C298.12 284.134 299.474 283.577 301.202 283.577ZM318.6 289.887C318.6 288.429 318.299 287.289 317.695 286.466C317.091 285.644 316.268 285.233 315.227 285.233C314.186 285.233 313.368 285.644 312.775 286.466C312.181 287.289 311.885 288.429 311.885 289.887C311.885 291.345 312.181 292.485 312.775 293.307C313.368 294.13 314.186 294.541 315.227 294.541C316.268 294.541 317.091 294.13 317.695 293.307C318.299 292.485 318.6 291.345 318.6 289.887ZM311.885 285.67C312.28 284.962 312.796 284.436 313.431 284.093C314.066 283.749 314.831 283.577 315.727 283.577C317.184 283.577 318.366 284.155 319.272 285.311C320.178 286.466 320.631 287.992 320.631 289.887C320.631 291.782 320.178 293.307 319.272 294.463C318.366 295.619 317.184 296.197 315.727 296.197C314.831 296.197 314.066 296.025 313.431 295.681C312.796 295.338 312.28 294.801 311.885 294.073V295.884H309.885V279.173H311.885V285.67ZM328.565 285.233C327.503 285.233 326.665 285.649 326.05 286.482C325.436 287.315 325.129 288.45 325.129 289.887C325.129 291.324 325.431 292.453 326.035 293.276C326.638 294.099 327.482 294.51 328.565 294.51C329.606 294.51 330.434 294.099 331.048 293.276C331.662 292.453 331.969 291.324 331.969 289.887C331.969 288.45 331.662 287.315 331.048 286.482C330.434 285.649 329.606 285.233 328.565 285.233ZM328.565 283.577C330.272 283.577 331.615 284.134 332.594 285.248C333.573 286.362 334.062 287.909 334.062 289.887C334.062 291.844 333.573 293.385 332.594 294.51C331.615 295.634 330.272 296.197 328.565 296.197C326.836 296.197 325.483 295.634 324.504 294.51C323.525 293.385 323.036 291.844 323.036 289.887C323.036 287.909 323.525 286.362 324.504 285.248C325.483 284.134 326.836 283.577 328.565 283.577ZM339.279 280.454V283.858H343.339V285.389H339.279V291.917C339.279 292.896 339.414 293.526 339.685 293.807C339.955 294.088 340.497 294.229 341.309 294.229H343.339V295.884H341.309C339.789 295.884 338.737 295.598 338.154 295.025C337.571 294.453 337.28 293.417 337.28 291.917V285.389H335.843V283.858H337.28V280.454H339.279ZM349.462 279.86H351.273L345.682 297.914H343.87L349.462 279.86ZM358.801 289.824C357.219 289.824 356.12 290.012 355.506 290.387C354.891 290.761 354.584 291.386 354.584 292.261C354.584 292.948 354.813 293.5 355.272 293.916C355.73 294.333 356.354 294.541 357.146 294.541C358.249 294.541 359.129 294.151 359.785 293.37C360.441 292.589 360.769 291.563 360.769 290.293V289.824H358.801ZM362.737 289.012V295.884H360.769V294.073C360.332 294.801 359.775 295.338 359.098 295.681C358.421 296.025 357.593 296.197 356.615 296.197C355.386 296.197 354.407 295.853 353.679 295.166C352.95 294.479 352.585 293.552 352.585 292.386C352.585 291.032 353.038 290.012 353.944 289.325C354.85 288.637 356.209 288.294 358.02 288.294H360.769V288.106C360.769 287.19 360.472 286.482 359.879 285.982C359.285 285.483 358.447 285.233 357.364 285.233C356.677 285.233 356.006 285.316 355.35 285.483C354.694 285.649 354.064 285.899 353.46 286.232V284.421C354.189 284.129 354.897 283.916 355.584 283.78C356.271 283.645 356.927 283.577 357.552 283.577C359.301 283.577 360.603 284.025 361.456 284.92C362.31 285.816 362.737 287.18 362.737 289.012ZM373.763 285.701C373.555 285.576 373.321 285.483 373.061 285.42C372.8 285.358 372.514 285.326 372.202 285.326C371.077 285.326 370.218 285.691 369.624 286.42C369.031 287.148 368.734 288.19 368.734 289.543V295.884H366.735V283.858H368.734V285.732C369.13 285.004 369.661 284.462 370.327 284.108C370.994 283.754 371.806 283.577 372.764 283.577C372.91 283.577 373.061 283.582 373.217 283.593C373.373 283.603 373.555 283.629 373.763 283.671V285.701ZM385.196 286.17C385.696 285.274 386.289 284.618 386.976 284.202C387.663 283.785 388.475 283.577 389.413 283.577C390.662 283.577 391.625 284.014 392.302 284.889C392.979 285.764 393.317 287.013 393.317 288.637V295.884H391.318V288.7C391.318 287.534 391.115 286.675 390.709 286.123C390.303 285.571 389.683 285.295 388.85 285.295C387.83 285.295 387.023 285.634 386.43 286.31C385.836 286.987 385.539 287.909 385.539 289.075V295.884H383.54V288.7C383.54 287.534 383.337 286.675 382.931 286.123C382.525 285.571 381.895 285.295 381.041 285.295C380.042 285.295 379.245 285.634 378.652 286.31C378.058 286.987 377.762 287.909 377.762 289.075V295.884H375.763V283.858H377.762V285.732C378.199 284.983 378.735 284.436 379.37 284.093C380.005 283.749 380.75 283.577 381.604 283.577C382.478 283.577 383.223 283.796 383.837 284.233C384.451 284.67 384.904 285.316 385.196 286.17Z" fill="black" stroke="black" stroke-width="1.99911" stroke-linecap="square" stroke-linejoin="round"/>
<path d="M454.833 327.871H172.963V397.839H454.833V327.871Z" stroke="black" stroke-width="1.99911" stroke-linecap="square" stroke-linejoin="round"/>
<path d="M221.534 354.827H223.345L217.754 372.881H215.942L221.534 354.827ZM234.778 361.137C235.278 360.241 235.871 359.585 236.558 359.169C237.245 358.752 238.058 358.544 238.995 358.544C240.244 358.544 241.207 358.981 241.884 359.856C242.561 360.73 242.899 361.98 242.899 363.604V370.851H240.9V363.667C240.9 362.501 240.697 361.642 240.291 361.09C239.885 360.538 239.265 360.262 238.432 360.262C237.412 360.262 236.605 360.6 236.012 361.277C235.418 361.954 235.121 362.875 235.121 364.041V370.851H233.122V363.667C233.122 362.501 232.919 361.642 232.513 361.09C232.107 360.538 231.477 360.262 230.623 360.262C229.624 360.262 228.827 360.6 228.234 361.277C227.64 361.954 227.344 362.875 227.344 364.041V370.851H225.344V358.825H227.344V360.699C227.781 359.95 228.317 359.403 228.952 359.059C229.587 358.716 230.332 358.544 231.186 358.544C232.06 358.544 232.805 358.763 233.419 359.2C234.033 359.637 234.486 360.283 234.778 361.137ZM251.833 371.975C251.27 373.412 250.724 374.344 250.193 374.771C249.662 375.198 248.948 375.412 248.053 375.412H246.491V373.787H247.647C248.188 373.787 248.61 373.657 248.912 373.397C249.214 373.136 249.542 372.527 249.896 371.569L250.271 370.664L245.398 358.825H247.491L251.239 368.227L255.019 358.825H257.112L251.833 371.975ZM268.95 374.506V376.036H257.518V374.506H268.95ZM277.759 360.668C277.55 360.543 277.316 360.449 277.056 360.387C276.795 360.324 276.509 360.293 276.197 360.293C275.072 360.293 274.213 360.658 273.62 361.386C273.026 362.115 272.73 363.156 272.73 364.51V370.851H270.731V358.825H272.73V360.699C273.125 359.97 273.656 359.429 274.323 359.075C274.989 358.721 275.801 358.544 276.759 358.544C276.905 358.544 277.056 358.549 277.212 358.56C277.368 358.57 277.55 358.596 277.759 358.638V360.668ZM284.506 360.199C283.444 360.199 282.606 360.616 281.991 361.449C281.377 362.282 281.07 363.417 281.07 364.854C281.07 366.29 281.372 367.42 281.976 368.243C282.579 369.065 283.423 369.477 284.506 369.477C285.547 369.477 286.375 369.065 286.989 368.243C287.603 367.42 287.91 366.29 287.91 364.854C287.91 363.417 287.603 362.282 286.989 361.449C286.375 360.616 285.547 360.199 284.506 360.199ZM284.506 358.544C286.213 358.544 287.556 359.101 288.535 360.215C289.514 361.329 290.003 362.875 290.003 364.854C290.003 366.811 289.514 368.352 288.535 369.477C287.556 370.601 286.213 371.163 284.506 371.163C282.777 371.163 281.424 370.601 280.445 369.477C279.466 368.352 278.977 366.811 278.977 364.854C278.977 362.875 279.466 361.329 280.445 360.215C281.424 359.101 282.777 358.544 284.506 358.544ZM301.904 364.854C301.904 363.396 301.602 362.256 300.998 361.433C300.394 360.611 299.572 360.199 298.531 360.199C297.489 360.199 296.672 360.611 296.079 361.433C295.485 362.256 295.188 363.396 295.188 364.854C295.188 366.311 295.485 367.451 296.079 368.274C296.672 369.097 297.489 369.508 298.531 369.508C299.572 369.508 300.394 369.097 300.998 368.274C301.602 367.451 301.904 366.311 301.904 364.854ZM295.188 360.637C295.584 359.929 296.099 359.403 296.735 359.059C297.37 358.716 298.135 358.544 299.03 358.544C300.488 358.544 301.67 359.122 302.576 360.278C303.482 361.433 303.934 362.959 303.934 364.854C303.934 366.749 303.482 368.274 302.576 369.43C301.67 370.585 300.488 371.163 299.03 371.163C298.135 371.163 297.37 370.991 296.735 370.648C296.099 370.304 295.584 369.768 295.188 369.039V370.851H293.189V354.14H295.188V360.637ZM311.868 360.199C310.806 360.199 309.968 360.616 309.354 361.449C308.74 362.282 308.432 363.417 308.432 364.854C308.432 366.29 308.734 367.42 309.338 368.243C309.942 369.065 310.786 369.477 311.868 369.477C312.91 369.477 313.737 369.065 314.352 368.243C314.966 367.42 315.273 366.29 315.273 364.854C315.273 363.417 314.966 362.282 314.352 361.449C313.737 360.616 312.91 360.199 311.868 360.199ZM311.868 358.544C313.576 358.544 314.919 359.101 315.898 360.215C316.877 361.329 317.366 362.875 317.366 364.854C317.366 366.811 316.877 368.352 315.898 369.477C314.919 370.601 313.576 371.163 311.868 371.163C310.14 371.163 308.786 370.601 307.808 369.477C306.829 368.352 306.34 366.811 306.34 364.854C306.34 362.875 306.829 361.329 307.808 360.215C308.786 359.101 310.14 358.544 311.868 358.544ZM322.583 355.42V358.825H326.643V360.356H322.583V366.884C322.583 367.863 322.718 368.493 322.989 368.774C323.259 369.055 323.801 369.195 324.613 369.195H326.643V370.851H324.613C323.093 370.851 322.041 370.565 321.458 369.992C320.875 369.419 320.583 368.383 320.583 366.884V360.356H319.146V358.825H320.583V355.42H322.583ZM332.765 354.827H334.577L328.986 372.881H327.174L332.765 354.827ZM342.105 364.791C340.522 364.791 339.424 364.979 338.809 365.353C338.195 365.728 337.888 366.353 337.888 367.228C337.888 367.915 338.117 368.467 338.575 368.883C339.033 369.3 339.658 369.508 340.45 369.508C341.553 369.508 342.433 369.117 343.089 368.336C343.745 367.556 344.073 366.53 344.073 365.26V364.791H342.105ZM346.041 363.979V370.851H344.073V369.039C343.636 369.768 343.079 370.304 342.402 370.648C341.725 370.991 340.897 371.163 339.918 371.163C338.69 371.163 337.711 370.82 336.982 370.132C336.253 369.445 335.889 368.519 335.889 367.353C335.889 365.999 336.342 364.979 337.248 364.291C338.154 363.604 339.512 363.261 341.324 363.261H344.073V363.073C344.073 362.157 343.776 361.449 343.183 360.949C342.589 360.449 341.751 360.199 340.668 360.199C339.981 360.199 339.309 360.283 338.653 360.449C337.997 360.616 337.368 360.866 336.764 361.199V359.387C337.492 359.096 338.201 358.882 338.888 358.747C339.575 358.612 340.231 358.544 340.856 358.544C342.605 358.544 343.906 358.992 344.76 359.887C345.614 360.783 346.041 362.146 346.041 363.979ZM357.067 360.668C356.859 360.543 356.625 360.449 356.364 360.387C356.104 360.324 355.818 360.293 355.505 360.293C354.381 360.293 353.522 360.658 352.928 361.386C352.335 362.115 352.038 363.156 352.038 364.51V370.851H350.039V358.825H352.038V360.699C352.434 359.97 352.965 359.429 353.631 359.075C354.297 358.721 355.11 358.544 356.068 358.544C356.213 358.544 356.364 358.549 356.52 358.56C356.677 358.57 356.859 358.596 357.067 358.638V360.668ZM368.499 361.137C368.999 360.241 369.593 359.585 370.28 359.169C370.967 358.752 371.779 358.544 372.716 358.544C373.966 358.544 374.929 358.981 375.606 359.856C376.282 360.73 376.621 361.98 376.621 363.604V370.851H374.622V363.667C374.622 362.501 374.419 361.642 374.013 361.09C373.607 360.538 372.987 360.262 372.154 360.262C371.134 360.262 370.327 360.6 369.733 361.277C369.14 361.954 368.843 362.875 368.843 364.041V370.851H366.844V363.667C366.844 362.501 366.641 361.642 366.235 361.09C365.829 360.538 365.199 360.262 364.345 360.262C363.346 360.262 362.549 360.6 361.956 361.277C361.362 361.954 361.065 362.875 361.065 364.041V370.851H359.066V358.825H361.065V360.699C361.503 359.95 362.039 359.403 362.674 359.059C363.309 358.716 364.053 358.544 364.907 358.544C365.782 358.544 366.526 358.763 367.141 359.2C367.755 359.637 368.208 360.283 368.499 361.137ZM384.055 354.827H385.867L380.275 372.881H378.464L384.055 354.827ZM397.924 358.825L393.582 364.666L398.174 370.851H395.831L392.333 366.134L388.834 370.851H386.491L391.177 364.573L386.897 358.825H389.24L392.426 363.104L395.612 358.825H397.924ZM405.952 371.975C405.389 373.412 404.843 374.344 404.312 374.771C403.781 375.198 403.067 375.412 402.172 375.412H400.61V373.787H401.766C402.307 373.787 402.729 373.657 403.031 373.397C403.333 373.136 403.661 372.527 404.015 371.569L404.39 370.664L399.517 358.825H401.61L405.358 368.227L409.138 358.825H411.23L405.952 371.975Z" fill="black" stroke="black" stroke-width="1.99911" stroke-linecap="square" stroke-linejoin="round"/>
<path d="M454.833 327.871H172.963V397.839H454.833V327.871Z" stroke="black" stroke-width="1.99911" stroke-linecap="square" stroke-linejoin="round"/>
<path d="M221.534 354.827H223.345L217.754 372.881H215.942L221.534 354.827ZM234.778 361.137C235.278 360.241 235.871 359.585 236.558 359.169C237.245 358.752 238.058 358.544 238.995 358.544C240.244 358.544 241.207 358.981 241.884 359.856C242.561 360.73 242.899 361.98 242.899 363.604V370.851H240.9V363.667C240.9 362.501 240.697 361.642 240.291 361.09C239.885 360.538 239.265 360.262 238.432 360.262C237.412 360.262 236.605 360.6 236.012 361.277C235.418 361.954 235.121 362.875 235.121 364.041V370.851H233.122V363.667C233.122 362.501 232.919 361.642 232.513 361.09C232.107 360.538 231.477 360.262 230.623 360.262C229.624 360.262 228.827 360.6 228.234 361.277C227.64 361.954 227.344 362.875 227.344 364.041V370.851H225.344V358.825H227.344V360.699C227.781 359.95 228.317 359.403 228.952 359.059C229.587 358.716 230.332 358.544 231.186 358.544C232.06 358.544 232.805 358.763 233.419 359.2C234.033 359.637 234.486 360.283 234.778 361.137ZM251.833 371.975C251.27 373.412 250.724 374.344 250.193 374.771C249.662 375.198 248.948 375.412 248.053 375.412H246.491V373.787H247.647C248.188 373.787 248.61 373.657 248.912 373.397C249.214 373.136 249.542 372.527 249.896 371.569L250.271 370.664L245.398 358.825H247.491L251.239 368.227L255.019 358.825H257.112L251.833 371.975ZM268.95 374.506V376.036H257.518V374.506H268.95ZM277.759 360.668C277.55 360.543 277.316 360.449 277.056 360.387C276.795 360.324 276.509 360.293 276.197 360.293C275.072 360.293 274.213 360.658 273.62 361.386C273.026 362.115 272.73 363.156 272.73 364.51V370.851H270.731V358.825H272.73V360.699C273.125 359.97 273.656 359.429 274.323 359.075C274.989 358.721 275.801 358.544 276.759 358.544C276.905 358.544 277.056 358.549 277.212 358.56C277.368 358.57 277.55 358.596 277.759 358.638V360.668ZM284.506 360.199C283.444 360.199 282.606 360.616 281.991 361.449C281.377 362.282 281.07 363.417 281.07 364.854C281.07 366.29 281.372 367.42 281.976 368.243C282.579 369.065 283.423 369.477 284.506 369.477C285.547 369.477 286.375 369.065 286.989 368.243C287.603 367.42 287.91 366.29 287.91 364.854C287.91 363.417 287.603 362.282 286.989 361.449C286.375 360.616 285.547 360.199 284.506 360.199ZM284.506 358.544C286.213 358.544 287.556 359.101 288.535 360.215C289.514 361.329 290.003 362.875 290.003 364.854C290.003 366.811 289.514 368.352 288.535 369.477C287.556 370.601 286.213 371.163 284.506 371.163C282.777 371.163 281.424 370.601 280.445 369.477C279.466 368.352 278.977 366.811 278.977 364.854C278.977 362.875 279.466 361.329 280.445 360.215C281.424 359.101 282.777 358.544 284.506 358.544ZM301.904 364.854C301.904 363.396 301.602 362.256 300.998 361.433C300.394 360.611 299.572 360.199 298.531 360.199C297.489 360.199 296.672 360.611 296.079 361.433C295.485 362.256 295.188 363.396 295.188 364.854C295.188 366.311 295.485 367.451 296.079 368.274C296.672 369.097 297.489 369.508 298.531 369.508C299.572 369.508 300.394 369.097 300.998 368.274C301.602 367.451 301.904 366.311 301.904 364.854ZM295.188 360.637C295.584 359.929 296.099 359.403 296.735 359.059C297.37 358.716 298.135 358.544 299.03 358.544C300.488 358.544 301.67 359.122 302.576 360.278C303.482 361.433 303.934 362.959 303.934 364.854C303.934 366.749 303.482 368.274 302.576 369.43C301.67 370.585 300.488 371.163 299.03 371.163C298.135 371.163 297.37 370.991 296.735 370.648C296.099 370.304 295.584 369.768 295.188 369.039V370.851H293.189V354.14H295.188V360.637ZM311.868 360.199C310.806 360.199 309.968 360.616 309.354 361.449C308.74 362.282 308.432 363.417 308.432 364.854C308.432 366.29 308.734 367.42 309.338 368.243C309.942 369.065 310.786 369.477 311.868 369.477C312.91 369.477 313.737 369.065 314.352 368.243C314.966 367.42 315.273 366.29 315.273 364.854C315.273 363.417 314.966 362.282 314.352 361.449C313.737 360.616 312.91 360.199 311.868 360.199ZM311.868 358.544C313.576 358.544 314.919 359.101 315.898 360.215C316.877 361.329 317.366 362.875 317.366 364.854C317.366 366.811 316.877 368.352 315.898 369.477C314.919 370.601 313.576 371.163 311.868 371.163C310.14 371.163 308.786 370.601 307.808 369.477C306.829 368.352 306.34 366.811 306.34 364.854C306.34 362.875 306.829 361.329 307.808 360.215C308.786 359.101 310.14 358.544 311.868 358.544ZM322.583 355.42V358.825H326.643V360.356H322.583V366.884C322.583 367.863 322.718 368.493 322.989 368.774C323.259 369.055 323.801 369.195 324.613 369.195H326.643V370.851H324.613C323.093 370.851 322.041 370.565 321.458 369.992C320.875 369.419 320.583 368.383 320.583 366.884V360.356H319.146V358.825H320.583V355.42H322.583ZM332.765 354.827H334.577L328.986 372.881H327.174L332.765 354.827ZM342.105 364.791C340.522 364.791 339.424 364.979 338.809 365.353C338.195 365.728 337.888 366.353 337.888 367.228C337.888 367.915 338.117 368.467 338.575 368.883C339.033 369.3 339.658 369.508 340.45 369.508C341.553 369.508 342.433 369.117 343.089 368.336C343.745 367.556 344.073 366.53 344.073 365.26V364.791H342.105ZM346.041 363.979V370.851H344.073V369.039C343.636 369.768 343.079 370.304 342.402 370.648C341.725 370.991 340.897 371.163 339.918 371.163C338.69 371.163 337.711 370.82 336.982 370.132C336.253 369.445 335.889 368.519 335.889 367.353C335.889 365.999 336.342 364.979 337.248 364.291C338.154 363.604 339.512 363.261 341.324 363.261H344.073V363.073C344.073 362.157 343.776 361.449 343.183 360.949C342.589 360.449 341.751 360.199 340.668 360.199C339.981 360.199 339.309 360.283 338.653 360.449C337.997 360.616 337.368 360.866 336.764 361.199V359.387C337.492 359.096 338.201 358.882 338.888 358.747C339.575 358.612 340.231 358.544 340.856 358.544C342.605 358.544 343.906 358.992 344.76 359.887C345.614 360.783 346.041 362.146 346.041 363.979ZM357.067 360.668C356.859 360.543 356.625 360.449 356.364 360.387C356.104 360.324 355.818 360.293 355.505 360.293C354.381 360.293 353.522 360.658 352.928 361.386C352.335 362.115 352.038 363.156 352.038 364.51V370.851H350.039V358.825H352.038V360.699C352.434 359.97 352.965 359.429 353.631 359.075C354.297 358.721 355.11 358.544 356.068 358.544C356.213 358.544 356.364 358.549 356.52 358.56C356.677 358.57 356.859 358.596 357.067 358.638V360.668ZM368.499 361.137C368.999 360.241 369.593 359.585 370.28 359.169C370.967 358.752 371.779 358.544 372.716 358.544C373.966 358.544 374.929 358.981 375.606 359.856C376.282 360.73 376.621 361.98 376.621 363.604V370.851H374.622V363.667C374.622 362.501 374.419 361.642 374.013 361.09C373.607 360.538 372.987 360.262 372.154 360.262C371.134 360.262 370.327 360.6 369.733 361.277C369.14 361.954 368.843 362.875 368.843 364.041V370.851H366.844V363.667C366.844 362.501 366.641 361.642 366.235 361.09C365.829 360.538 365.199 360.262 364.345 360.262C363.346 360.262 362.549 360.6 361.956 361.277C361.362 361.954 361.065 362.875 361.065 364.041V370.851H359.066V358.825H361.065V360.699C361.503 359.95 362.039 359.403 362.674 359.059C363.309 358.716 364.053 358.544 364.907 358.544C365.782 358.544 366.526 358.763 367.141 359.2C367.755 359.637 368.208 360.283 368.499 361.137ZM384.055 354.827H385.867L380.275 372.881H378.464L384.055 354.827ZM397.924 358.825L393.582 364.666L398.174 370.851H395.831L392.333 366.134L388.834 370.851H386.491L391.177 364.573L386.897 358.825H389.24L392.426 363.104L395.612 358.825H397.924ZM405.952 371.975C405.389 373.412 404.843 374.344 404.312 374.771C403.781 375.198 403.067 375.412 402.172 375.412H400.61V373.787H401.766C402.307 373.787 402.729 373.657 403.031 373.397C403.333 373.136 403.661 372.527 404.015 371.569L404.39 370.664L399.517 358.825H401.61L405.358 368.227L409.138 358.825H411.23L405.952 371.975Z" fill="black" stroke="black" stroke-width="1.99911" stroke-linecap="square" stroke-linejoin="round"/>
<path d="M718.678 315.876C802.803 315.876 870.999 300.213 870.999 280.892C870.999 261.57 802.803 245.907 718.678 245.907C634.554 245.907 566.357 261.57 566.357 280.892C566.357 300.213 634.554 315.876 718.678 315.876Z" stroke="black" stroke-width="1.99911" stroke-linecap="square" stroke-linejoin="round"/>
<path d="M646.509 272.863H648.32L642.729 290.917H640.917L646.509 272.863ZM659.753 279.173C660.253 278.277 660.846 277.621 661.533 277.205C662.221 276.788 663.033 276.58 663.97 276.58C665.219 276.58 666.182 277.017 666.859 277.892C667.536 278.767 667.874 280.016 667.874 281.64V288.887H665.875V281.703C665.875 280.537 665.672 279.678 665.266 279.126C664.86 278.574 664.24 278.298 663.407 278.298C662.387 278.298 661.58 278.636 660.987 279.313C660.393 279.99 660.096 280.911 660.096 282.078V288.887H658.097V281.703C658.097 280.537 657.894 279.678 657.488 279.126C657.082 278.574 656.452 278.298 655.598 278.298C654.599 278.298 653.802 278.636 653.209 279.313C652.615 279.99 652.319 280.911 652.319 282.078V288.887H650.32V276.861H652.319V278.735C652.756 277.986 653.292 277.439 653.927 277.095C654.562 276.752 655.307 276.58 656.161 276.58C657.035 276.58 657.78 276.799 658.394 277.236C659.008 277.673 659.461 278.319 659.753 279.173ZM677.245 282.827C675.662 282.827 674.564 283.015 673.95 283.39C673.335 283.764 673.028 284.389 673.028 285.264C673.028 285.951 673.257 286.503 673.715 286.919C674.173 287.336 674.798 287.544 675.59 287.544C676.693 287.544 677.573 287.153 678.229 286.373C678.885 285.592 679.213 284.566 679.213 283.296V282.827H677.245ZM681.181 282.015V288.887H679.213V287.075C678.776 287.804 678.219 288.341 677.542 288.684C676.865 289.028 676.037 289.2 675.058 289.2C673.83 289.2 672.851 288.856 672.122 288.169C671.394 287.482 671.029 286.555 671.029 285.389C671.029 284.035 671.482 283.015 672.388 282.328C673.294 281.64 674.652 281.297 676.464 281.297H679.213V281.109C679.213 280.193 678.916 279.485 678.323 278.985C677.729 278.485 676.891 278.236 675.808 278.236C675.121 278.236 674.449 278.319 673.793 278.485C673.138 278.652 672.508 278.902 671.904 279.235V277.423C672.633 277.132 673.341 276.918 674.028 276.783C674.715 276.648 675.371 276.58 675.996 276.58C677.745 276.58 679.046 277.028 679.9 277.923C680.754 278.819 681.181 280.183 681.181 282.015ZM685.242 276.861H687.241V288.887H685.242V276.861ZM685.242 272.176H687.241V274.675H685.242V272.176ZM701.328 281.64V288.887H699.36V281.703C699.36 280.557 699.142 279.704 698.704 279.141C698.267 278.579 697.601 278.298 696.705 278.298C695.643 278.298 694.805 278.636 694.191 279.313C693.576 279.99 693.269 280.911 693.269 282.078V288.887H691.27V276.861H693.269V278.735C693.727 278.007 694.279 277.465 694.925 277.111C695.57 276.757 696.309 276.58 697.142 276.58C698.517 276.58 699.558 277.007 700.266 277.861C700.974 278.715 701.328 279.974 701.328 281.64ZM714.416 292.542V294.072H702.984V292.542H714.416ZM716.259 272.176H718.258V288.887H716.259V272.176ZM722.35 276.861H724.349V288.887H722.35V276.861ZM722.35 272.176H724.349V274.675H722.35V272.176ZM736.125 277.205V279.079C735.563 278.787 734.98 278.574 734.376 278.439C733.772 278.303 733.147 278.236 732.502 278.236C731.523 278.236 730.789 278.387 730.299 278.689C729.81 278.99 729.566 279.433 729.566 280.016C729.566 280.474 729.743 280.833 730.097 281.094C730.451 281.354 731.159 281.609 732.221 281.859L732.877 282.015C734.293 282.307 735.292 282.728 735.875 283.28C736.458 283.832 736.75 284.597 736.75 285.576C736.75 286.68 736.313 287.559 735.438 288.216C734.563 288.871 733.345 289.2 731.783 289.2C731.138 289.2 730.466 289.137 729.769 289.012C729.071 288.887 728.337 288.7 727.567 288.45V286.419C728.295 286.794 729.014 287.075 729.722 287.263C730.43 287.45 731.138 287.544 731.846 287.544C732.762 287.544 733.47 287.383 733.97 287.06C734.47 286.737 734.72 286.294 734.72 285.732C734.72 285.191 734.542 284.774 734.189 284.483C733.835 284.191 733.043 283.921 731.815 283.671L731.127 283.483C729.899 283.233 729.014 282.843 728.472 282.312C727.931 281.781 727.66 281.047 727.66 280.11C727.66 278.985 728.061 278.116 728.863 277.502C729.664 276.887 730.804 276.58 732.283 276.58C733.012 276.58 733.699 276.632 734.345 276.736C734.99 276.84 735.584 276.997 736.125 277.205ZM741.841 273.456V276.861H745.902V278.392H741.841V284.92C741.841 285.899 741.977 286.529 742.247 286.81C742.518 287.091 743.06 287.232 743.872 287.232H745.902V288.887H743.872C742.352 288.887 741.3 288.601 740.717 288.028C740.134 287.456 739.842 286.419 739.842 284.92V278.392H738.405V276.861H739.842V273.456H741.841ZM758.803 282.39V283.358H749.713C749.796 284.712 750.202 285.743 750.931 286.451C751.66 287.159 752.68 287.513 753.992 287.513C754.763 287.513 755.502 287.419 756.21 287.232C756.918 287.044 757.626 286.773 758.334 286.419V288.262C757.626 288.575 756.897 288.809 756.147 288.965C755.398 289.121 754.648 289.2 753.898 289.2C751.962 289.2 750.437 288.642 749.322 287.528C748.208 286.414 747.651 284.899 747.651 282.983C747.651 281.026 748.182 279.469 749.244 278.314C750.306 277.158 751.743 276.58 753.555 276.58C755.158 276.58 756.434 277.101 757.381 278.142C758.329 279.183 758.803 280.599 758.803 282.39ZM756.803 281.796C756.803 280.714 756.507 279.849 755.913 279.204C755.32 278.558 754.533 278.236 753.555 278.236C752.451 278.236 751.571 278.548 750.915 279.173C750.259 279.797 749.879 280.672 749.775 281.796H756.803ZM772.015 281.64V288.887H770.048V281.703C770.048 280.557 769.829 279.704 769.391 279.141C768.954 278.579 768.288 278.298 767.392 278.298C766.33 278.298 765.492 278.636 764.878 279.313C764.264 279.99 763.957 280.911 763.957 282.078V288.887H761.957V276.861H763.957V278.735C764.415 278.007 764.966 277.465 765.612 277.111C766.257 276.757 766.997 276.58 767.83 276.58C769.204 276.58 770.245 277.007 770.953 277.861C771.661 278.715 772.015 279.974 772.015 281.64ZM786.259 282.39V283.358H777.169C777.253 284.712 777.659 285.743 778.387 286.451C779.116 287.159 780.137 287.513 781.449 287.513C782.219 287.513 782.958 287.419 783.667 287.232C784.374 287.044 785.083 286.773 785.791 286.419V288.262C785.083 288.575 784.354 288.809 783.604 288.965C782.854 289.121 782.105 289.2 781.355 289.2C779.418 289.2 777.893 288.642 776.779 287.528C775.665 286.414 775.108 284.899 775.108 282.983C775.108 281.026 775.639 279.469 776.701 278.314C777.763 277.158 779.2 276.58 781.011 276.58C782.615 276.58 783.89 277.101 784.838 278.142C785.785 279.183 786.259 280.599 786.259 282.39ZM784.26 281.796C784.26 280.714 783.963 279.849 783.37 279.204C782.776 278.558 781.99 278.236 781.011 278.236C779.908 278.236 779.028 278.548 778.372 279.173C777.716 279.797 777.336 280.672 777.232 281.796H784.26ZM796.442 278.704C796.234 278.579 795.999 278.485 795.739 278.423C795.479 278.361 795.193 278.329 794.88 278.329C793.756 278.329 792.897 278.694 792.303 279.423C791.71 280.151 791.413 281.193 791.413 282.546V288.887H789.414V276.861H791.413V278.735C791.809 278.007 792.34 277.465 793.006 277.111C793.672 276.757 794.485 276.58 795.442 276.58C795.588 276.58 795.739 276.585 795.895 276.596C796.052 276.606 796.234 276.632 796.442 276.674V278.704Z" fill="black" stroke="black" stroke-width="1.99911" stroke-linecap="square" stroke-linejoin="round"/>
<path d="M788.483 148.055C911.357 148.055 1010.97 132.392 1010.97 113.07C1010.97 93.749 911.357 78.0859 788.483 78.0859C665.609 78.0859 566 93.749 566 113.07C566 132.392 665.609 148.055 788.483 148.055Z" stroke="black" stroke-width="1.99911" stroke-linecap="square" stroke-linejoin="round"/>
<path d="M673.098 105.041H674.909L669.318 123.096H667.506L673.098 105.041ZM683.937 110.882C683.728 110.757 683.494 110.664 683.234 110.601C682.973 110.539 682.687 110.508 682.375 110.508C681.25 110.508 680.391 110.872 679.798 111.601C679.204 112.33 678.908 113.371 678.908 114.724V121.065H676.908V109.039H678.908V110.914C679.303 110.185 679.834 109.643 680.501 109.289C681.167 108.935 681.979 108.758 682.937 108.758C683.083 108.758 683.234 108.763 683.39 108.774C683.546 108.784 683.728 108.81 683.937 108.852V110.882ZM690.684 110.414C689.622 110.414 688.783 110.83 688.169 111.663C687.555 112.496 687.248 113.631 687.248 115.068C687.248 116.505 687.549 117.635 688.153 118.457C688.757 119.28 689.601 119.691 690.684 119.691C691.725 119.691 692.552 119.28 693.167 118.457C693.781 117.635 694.088 116.505 694.088 115.068C694.088 113.631 693.781 112.496 693.167 111.663C692.552 110.83 691.725 110.414 690.684 110.414ZM690.684 108.758C692.391 108.758 693.734 109.315 694.713 110.429C695.692 111.544 696.181 113.09 696.181 115.068C696.181 117.025 695.692 118.566 694.713 119.691C693.734 120.815 692.391 121.378 690.684 121.378C688.955 121.378 687.602 120.815 686.623 119.691C685.644 118.566 685.155 117.025 685.155 115.068C685.155 113.09 685.644 111.544 686.623 110.429C687.602 109.315 688.955 108.758 690.684 108.758ZM707.114 109.383V111.257C706.552 110.966 705.968 110.752 705.364 110.617C704.761 110.481 704.136 110.414 703.49 110.414C702.512 110.414 701.777 110.565 701.288 110.867C700.799 111.169 700.554 111.611 700.554 112.194C700.554 112.652 700.731 113.012 701.085 113.272C701.439 113.532 702.147 113.787 703.209 114.037L703.865 114.193C705.281 114.485 706.281 114.907 706.864 115.458C707.447 116.01 707.738 116.776 707.738 117.754C707.738 118.858 707.301 119.738 706.427 120.394C705.552 121.05 704.334 121.378 702.772 121.378C702.126 121.378 701.455 121.315 700.757 121.19C700.06 121.065 699.326 120.878 698.555 120.628V118.598C699.284 118.972 700.002 119.254 700.71 119.441C701.418 119.629 702.126 119.722 702.834 119.722C703.751 119.722 704.459 119.561 704.958 119.238C705.458 118.915 705.708 118.473 705.708 117.91C705.708 117.369 705.531 116.953 705.177 116.661C704.823 116.369 704.032 116.099 702.803 115.849L702.116 115.661C700.887 115.412 700.002 115.021 699.461 114.49C698.919 113.959 698.649 113.225 698.649 112.288C698.649 111.163 699.05 110.294 699.851 109.68C700.653 109.065 701.793 108.758 703.272 108.758C704.001 108.758 704.688 108.81 705.333 108.914C705.979 109.019 706.572 109.175 707.114 109.383ZM719.514 115.068C719.514 113.61 719.213 112.47 718.609 111.648C718.005 110.825 717.182 110.414 716.141 110.414C715.1 110.414 714.282 110.825 713.689 111.648C713.095 112.47 712.799 113.61 712.799 115.068C712.799 116.526 713.095 117.666 713.689 118.488C714.282 119.311 715.1 119.722 716.141 119.722C717.182 119.722 718.005 119.311 718.609 118.488C719.213 117.666 719.514 116.526 719.514 115.068ZM712.799 110.851C713.194 110.143 713.71 109.617 714.345 109.274C714.98 108.93 715.745 108.758 716.641 108.758C718.098 108.758 719.28 109.336 720.186 110.492C721.092 111.648 721.545 113.173 721.545 115.068C721.545 116.963 721.092 118.488 720.186 119.644C719.28 120.8 718.098 121.378 716.641 121.378C715.745 121.378 714.98 121.206 714.345 120.862C713.71 120.519 713.194 119.982 712.799 119.254V121.065H710.8V104.354H712.799V110.851ZM731.759 110.882C731.551 110.757 731.317 110.664 731.056 110.601C730.796 110.539 730.509 110.508 730.197 110.508C729.073 110.508 728.214 110.872 727.62 111.601C727.027 112.33 726.73 113.371 726.73 114.724V121.065H724.731V109.039H726.73V110.914C727.126 110.185 727.657 109.643 728.323 109.289C728.989 108.935 729.802 108.758 730.759 108.758C730.905 108.758 731.056 108.763 731.212 108.774C731.369 108.784 731.551 108.81 731.759 108.852V110.882ZM733.821 109.039H735.82V121.065H733.821V109.039ZM733.821 104.354H735.82V106.853H733.821V104.354ZM747.846 110.851V104.354H749.814V121.065H747.846V119.254C747.429 119.982 746.903 120.519 746.268 120.862C745.633 121.206 744.868 121.378 743.972 121.378C742.536 121.378 741.359 120.8 740.443 119.644C739.526 118.488 739.068 116.963 739.068 115.068C739.068 113.173 739.526 111.648 740.443 110.492C741.359 109.336 742.536 108.758 743.972 108.758C744.868 108.758 745.633 108.93 746.268 109.274C746.903 109.617 747.429 110.143 747.846 110.851ZM741.099 115.068C741.099 116.526 741.4 117.666 742.004 118.488C742.608 119.311 743.431 119.722 744.472 119.722C745.513 119.722 746.336 119.311 746.94 118.488C747.544 117.666 747.846 116.526 747.846 115.068C747.846 113.61 747.544 112.47 746.94 111.648C746.336 110.825 745.513 110.414 744.472 110.414C743.431 110.414 742.608 110.825 742.004 111.648C741.4 112.47 741.099 113.61 741.099 115.068ZM761.777 114.912C761.777 113.475 761.48 112.366 760.887 111.585C760.293 110.804 759.465 110.414 758.403 110.414C757.341 110.414 756.514 110.804 755.92 111.585C755.327 112.366 755.03 113.475 755.03 114.912C755.03 116.328 755.327 117.432 755.92 118.223C756.514 119.014 757.341 119.41 758.403 119.41C759.465 119.41 760.293 119.014 760.887 118.223C761.48 117.432 761.777 116.328 761.777 114.912ZM763.745 119.566C763.745 121.628 763.292 123.153 762.386 124.142C761.48 125.131 760.09 125.626 758.216 125.626C757.508 125.626 756.847 125.574 756.232 125.47C755.618 125.365 755.019 125.209 754.436 125.001V123.096C755.019 123.408 755.592 123.637 756.154 123.783C756.717 123.929 757.3 124.002 757.904 124.002C759.195 124.002 760.163 123.663 760.809 122.986C761.454 122.31 761.777 121.294 761.777 119.941V118.941C761.36 119.649 760.835 120.18 760.199 120.534C759.564 120.888 758.799 121.065 757.904 121.065C756.425 121.065 755.238 120.503 754.343 119.379C753.447 118.254 752.999 116.765 752.999 114.912C752.999 113.058 753.447 111.57 754.343 110.445C755.238 109.321 756.425 108.758 757.904 108.758C758.799 108.758 759.564 108.93 760.199 109.274C760.835 109.617 761.36 110.143 761.777 110.851V109.039H763.745V119.566ZM778.082 114.568V115.537H768.992C769.076 116.89 769.482 117.921 770.211 118.629C770.939 119.337 771.96 119.691 773.272 119.691C774.042 119.691 774.782 119.597 775.489 119.41C776.198 119.222 776.906 118.952 777.614 118.598V120.441C776.906 120.753 776.177 120.987 775.427 121.143C774.677 121.3 773.928 121.378 773.178 121.378C771.241 121.378 769.716 120.821 768.602 119.707C767.488 118.592 766.931 117.077 766.931 115.162C766.931 113.204 767.462 111.648 768.524 110.492C769.586 109.336 771.023 108.758 772.834 108.758C774.438 108.758 775.713 109.279 776.661 110.32C777.608 111.361 778.082 112.777 778.082 114.568ZM776.083 113.975C776.083 112.892 775.786 112.028 775.193 111.382C774.599 110.737 773.813 110.414 772.834 110.414C771.731 110.414 770.851 110.726 770.195 111.351C769.539 111.976 769.159 112.85 769.055 113.975H776.083ZM790.452 124.72V126.251H779.019V124.72H790.452ZM791.17 109.039H793.138L795.606 118.41L798.073 109.039H800.385L802.852 118.41L805.32 109.039H807.288L804.164 121.065H801.822L799.229 111.195L796.636 121.065H794.294L791.17 109.039ZM820.563 114.568V115.537H811.473C811.557 116.89 811.963 117.921 812.692 118.629C813.421 119.337 814.441 119.691 815.753 119.691C816.523 119.691 817.263 119.597 817.971 119.41C818.679 119.222 819.387 118.952 820.095 118.598V120.441C819.387 120.753 818.658 120.987 817.908 121.143C817.159 121.3 816.409 121.378 815.659 121.378C813.722 121.378 812.197 120.821 811.083 119.707C809.969 118.592 809.412 117.077 809.412 115.162C809.412 113.204 809.943 111.648 811.005 110.492C812.067 109.336 813.504 108.758 815.316 108.758C816.919 108.758 818.194 109.279 819.142 110.32C820.089 111.361 820.563 112.777 820.563 114.568ZM818.564 113.975C818.564 112.892 818.267 112.028 817.674 111.382C817.08 110.737 816.294 110.414 815.316 110.414C814.212 110.414 813.332 110.726 812.676 111.351C812.02 111.976 811.64 112.85 811.536 113.975H818.564ZM832.433 115.068C832.433 113.61 832.131 112.47 831.527 111.648C830.923 110.825 830.101 110.414 829.059 110.414C828.018 110.414 827.201 110.825 826.607 111.648C826.014 112.47 825.717 113.61 825.717 115.068C825.717 116.526 826.014 117.666 826.607 118.488C827.201 119.311 828.018 119.722 829.059 119.722C830.101 119.722 830.923 119.311 831.527 118.488C832.131 117.666 832.433 116.526 832.433 115.068ZM825.717 110.851C826.113 110.143 826.628 109.617 827.263 109.274C827.899 108.93 828.664 108.758 829.559 108.758C831.017 108.758 832.199 109.336 833.104 110.492C834.01 111.648 834.463 113.173 834.463 115.068C834.463 116.963 834.01 118.488 833.104 119.644C832.199 120.8 831.017 121.378 829.559 121.378C828.664 121.378 827.899 121.206 827.263 120.862C826.628 120.519 826.113 119.982 825.717 119.254V121.065H823.718V104.354H825.717V110.851ZM845.396 109.383V111.257C844.834 110.966 844.251 110.752 843.647 110.617C843.043 110.481 842.418 110.414 841.773 110.414C840.794 110.414 840.06 110.565 839.57 110.867C839.081 111.169 838.836 111.611 838.836 112.194C838.836 112.652 839.013 113.012 839.367 113.272C839.721 113.532 840.429 113.787 841.491 114.037L842.147 114.193C843.563 114.485 844.563 114.907 845.146 115.458C845.729 116.01 846.021 116.776 846.021 117.754C846.021 118.858 845.583 119.738 844.709 120.394C843.834 121.05 842.616 121.378 841.054 121.378C840.409 121.378 839.737 121.315 839.039 121.19C838.342 121.065 837.608 120.878 836.837 120.628V118.598C837.566 118.972 838.285 119.254 838.993 119.441C839.7 119.629 840.409 119.722 841.117 119.722C842.033 119.722 842.741 119.561 843.241 119.238C843.74 118.915 843.99 118.473 843.99 117.91C843.99 117.369 843.813 116.953 843.459 116.661C843.105 116.369 842.314 116.099 841.085 115.849L840.398 115.661C839.17 115.412 838.285 115.021 837.743 114.49C837.202 113.959 836.931 113.225 836.931 112.288C836.931 111.163 837.332 110.294 838.134 109.68C838.935 109.065 840.075 108.758 841.554 108.758C842.283 108.758 842.97 108.81 843.616 108.914C844.261 109.019 844.854 109.175 845.396 109.383ZM853.83 110.414C852.768 110.414 851.929 110.83 851.315 111.663C850.701 112.496 850.394 113.631 850.394 115.068C850.394 116.505 850.696 117.635 851.3 118.457C851.903 119.28 852.747 119.691 853.83 119.691C854.871 119.691 855.699 119.28 856.313 118.457C856.927 117.635 857.234 116.505 857.234 115.068C857.234 113.631 856.927 112.496 856.313 111.663C855.699 110.83 854.871 110.414 853.83 110.414ZM853.83 108.758C855.537 108.758 856.88 109.315 857.859 110.429C858.838 111.544 859.327 113.09 859.327 115.068C859.327 117.025 858.838 118.566 857.859 119.691C856.88 120.815 855.537 121.378 853.83 121.378C852.101 121.378 850.748 120.815 849.769 119.691C848.79 118.566 848.301 117.025 848.301 115.068C848.301 113.09 848.79 111.544 849.769 110.429C850.748 109.315 852.101 108.758 853.83 108.758ZM871.228 109.508V111.351C870.686 111.039 870.134 110.804 869.572 110.648C869.011 110.492 868.437 110.414 867.855 110.414C866.584 110.414 865.595 110.82 864.887 111.632C864.179 112.444 863.825 113.589 863.825 115.068C863.825 116.526 864.179 117.661 864.887 118.473C865.595 119.285 866.584 119.691 867.855 119.691C868.437 119.691 869.011 119.618 869.572 119.472C870.134 119.326 870.686 119.097 871.228 118.785V120.597C870.686 120.867 870.12 121.065 869.526 121.19C868.933 121.315 868.303 121.378 867.635 121.378C865.824 121.378 864.387 120.81 863.325 119.675C862.263 118.54 861.732 117.005 861.732 115.068C861.732 113.111 862.269 111.57 863.341 110.445C864.413 109.321 865.887 108.758 867.761 108.758C868.385 108.758 868.985 108.821 869.556 108.946C870.13 109.071 870.686 109.258 871.228 109.508ZM874.602 104.354H876.601V114.225L882.473 109.039H885.004L878.63 114.662L885.285 121.065H882.693L876.601 115.193V121.065H874.602V104.354ZM897.686 114.568V115.537H888.596C888.678 116.89 889.086 117.921 889.813 118.629C890.543 119.337 891.563 119.691 892.874 119.691C893.646 119.691 894.385 119.597 895.093 119.41C895.801 119.222 896.508 118.952 897.216 118.598V120.441C896.508 120.753 895.781 120.987 895.031 121.143C894.281 121.3 893.532 121.378 892.782 121.378C890.845 121.378 889.32 120.821 888.204 119.707C887.091 118.592 886.535 117.077 886.535 115.162C886.535 113.204 887.065 111.648 888.126 110.492C889.19 109.336 890.625 108.758 892.438 108.758C894.041 108.758 895.317 109.279 896.265 110.32C897.212 111.361 897.686 112.777 897.686 114.568ZM895.687 113.975C895.687 112.892 895.389 112.028 894.795 111.382C894.201 110.737 893.416 110.414 892.438 110.414C891.335 110.414 890.453 110.726 889.797 111.351C889.142 111.976 888.762 112.85 888.658 113.975H895.687ZM902.87 105.635V109.039H906.932V110.57H902.87V117.098C902.87 118.077 903.006 118.707 903.277 118.988C903.547 119.269 904.089 119.41 904.901 119.41H906.932V121.065H904.901C903.381 121.065 902.33 120.779 901.746 120.206C901.162 119.634 900.87 118.598 900.87 117.098V110.57H899.435V109.039H900.87V105.635H902.87Z" fill="black" stroke="black" stroke-width="1.99911" stroke-linecap="square" stroke-linejoin="round"/>
<path d="M488.201 233.033C520.047 239.69 552.852 246.567 583.339 252.956" stroke="black" stroke-width="1.99911" stroke-linecap="square" stroke-linejoin="round"/>
<path fill-rule="evenodd" clip-rule="evenodd" d="M583.338 252.956L581.897 259.834L602.99 257.074L584.78 246.077L583.338 252.956Z" fill="black" stroke="black" stroke-width="1.99911" stroke-linecap="square" stroke-linejoin="round"/>
<path d="M456.075 334.188C496.817 325.856 541.217 316.774 581.659 308.507" stroke="black" stroke-width="1.99911" stroke-linecap="square" stroke-linejoin="round"/>
<path fill-rule="evenodd" clip-rule="evenodd" d="M581.66 308.507L583.099 315.546L601.771 304.395L580.22 301.468L581.66 308.507Z" fill="black" stroke="black" stroke-width="1.99911" stroke-linecap="square" stroke-linejoin="round"/>
</svg>
